<?xml version="1.0" encoding="utf-8"?>
<!-- Generator: Adobe Illustrator 19.0.0, SVG Export Plug-In . SVG Version: 6.00 Build 0)  -->
<svg version="1.1" id="Layer_1" xmlns="http://www.w3.org/2000/svg" xmlns:xlink="http://www.w3.org/1999/xlink" x="0px" y="0px"
	 viewBox="-401 204 156.7 154" style="enable-background:new -401 204 156.7 154;" xml:space="preserve">
<style type="text/css">
	.st0{fill:#A8AAAB;}
	.st1{fill:#FFFFFF;}
	.st2{fill:#E7328C;}
</style>
<g id="XMLID_4190_">
	<g id="XMLID_4226_">
		<path id="XMLID_4246_" class="st0" d="M-300.2,237.2c3.6,0,6.6-3,6.6-6.6v-18.1c0-3.6-3-6.6-6.6-6.6s-6.6,3-6.6,6.6v18.1
			C-306.8,234.4-303.9,237.2-300.2,237.2z"/>
		<path id="XMLID_4245_" class="st0" d="M-360.5,237.2c3.6,0,6.6-3,6.6-6.6v-18.1c0-3.6-3-6.6-6.6-6.6s-6.6,3-6.6,6.6v18.1
			C-367.1,234.4-364.1,237.2-360.5,237.2z"/>
		<path id="XMLID_4242_" class="st0" d="M-269.4,216.5h-20.7v14.2c0,5.5-4.5,10-10,10s-10-4.5-10-10v-14.2h-40.2v14.2
			c0,5.5-4.5,10-10,10s-10-4.5-10-10v-14.2h-20.7c-4.7,0-8.5,3.8-8.5,8.5v109.2c0,4.7,3.8,8.5,8.5,8.5h121.8c4.7,0,8.5-3.8,8.5-8.5
			V225C-260.9,220.2-264.8,216.5-269.4,216.5z M-271.8,324.7c0,4-3.2,7.2-7.2,7.2h-102.8c-4,0-7.2-3.2-7.2-7.2v-75.9h117.2V324.7
			L-271.8,324.7z"/>
		<path id="XMLID_4238_" class="st1" d="M-394.4,245.9v82.9c0,4.3,3.5,7.9,7.9,7.9h112.3c4.3,0,7.9-3.5,7.9-7.9v-82.9H-394.4z
			 M-352.8,326.6L-352.8,326.6 M-326.5,326.6L-326.5,326.6"/>
		<g id="XMLID_4227_">
			<rect id="XMLID_4237_" x="-351.3" y="258.2" class="st2" width="17.3" height="17.3"/>
			<rect id="XMLID_4236_" x="-326.8" y="258.2" class="st2" width="17.3" height="17.3"/>
			<rect id="XMLID_4235_" x="-302.3" y="258.2" class="st2" width="17.4" height="17.3"/>
			<rect id="XMLID_4234_" x="-375.8" y="282.7" class="st2" width="17.4" height="17.3"/>
			<rect id="XMLID_4233_" x="-351.3" y="282.7" class="st2" width="17.3" height="17.3"/>
			<rect id="XMLID_4232_" x="-326.8" y="282.7" class="st2" width="17.3" height="17.3"/>
			<rect id="XMLID_4231_" x="-302.3" y="282.7" class="st2" width="17.4" height="17.3"/>
			<rect id="XMLID_4230_" x="-375.8" y="307" class="st2" width="17.4" height="17.3"/>
			<rect id="XMLID_4229_" x="-351.3" y="307" class="st2" width="17.3" height="17.3"/>
			<rect id="XMLID_4228_" x="-326.8" y="307" class="st2" width="17.3" height="17.3"/>
		</g>
	</g>
	<g id="XMLID_4191_">
		<path id="XMLID_4223_" class="st1" d="M-277.8,295.9c-15.6,0-28.2,12.6-28.2,28.2c0,15.5,12.6,28.2,28.2,28.2s28.2-12.6,28.2-28.2
			S-262.1,295.9-277.8,295.9z M-273.2,325.4c0,1.5-1.2,2.7-2.7,2.7h-15.4c-1.5,0-2.7-1.2-2.7-2.7s1.2-2.7,2.7-2.7h12.6V310
			c0-1.5,1.2-2.7,2.7-2.7s2.7,1.2,2.7,2.7L-273.2,325.4L-273.2,325.4z"/>
		<path id="XMLID_4198_" class="st0" d="M-277.8,292.1c-17.7,0-32,14.3-32,32s14.3,32,32,32s32-14.3,32-32
			C-245.8,306.4-260,292.1-277.8,292.1z M-277.8,352.2c-15.6,0-28.2-12.6-28.2-28.2s12.6-28.2,28.2-28.2s28.2,12.6,28.2,28.2
			S-262.1,352.2-277.8,352.2z"/>
		<path id="XMLID_4193_" class="st2" d="M-275.9,307.2c-1.5,0-2.7,1.2-2.7,2.7v12.6h-12.6c-1.5,0-2.7,1.2-2.7,2.7s1.2,2.7,2.7,2.7
			h15.4c1.5,0,2.7-1.2,2.7-2.7V310C-273.2,308.5-274.4,307.2-275.9,307.2z"/>
	</g>
</g>
</svg>
