<?xml version="1.0" encoding="utf-8"?>
<!-- Generator: Adobe Illustrator 16.0.0, SVG Export Plug-In . SVG Version: 6.00 Build 0)  -->
<!DOCTYPE svg PUBLIC "-//W3C//DTD SVG 1.1//EN" "http://www.w3.org/Graphics/SVG/1.1/DTD/svg11.dtd">
<svg version="1.1" id="Layer_1" xmlns="http://www.w3.org/2000/svg" xmlns:xlink="http://www.w3.org/1999/xlink" x="0px" y="0px"
	 width="155px" height="151px" viewBox="0 0 155 151" enable-background="new 0 0 155 151" xml:space="preserve">
<g id="XMLID_4190_">
	<g id="XMLID_4226_">
		<path id="XMLID_4246_" fill="#A8AAAB" d="M100,32c3.6,0,6.7-3,6.7-6.6V7.2c0-3.601-3-6.601-6.7-6.601c-3.6,0-6.7,3-6.7,6.601v18.2
			C93.3,29.2,96.3,32,100,32z"/>
		<path id="XMLID_4245_" fill="#A8AAAB" d="M39.2,32c3.6,0,6.7-3,6.7-6.6V7.2c0-3.601-3-6.601-6.7-6.601c-3.6,0-6.7,3-6.7,6.601
			v18.2C32.5,29.2,35.5,32,39.2,32z"/>
		<path id="XMLID_4242_" fill="#A8AAAB" d="M131.1,11.2H110.2v14.3c0,5.5-4.5,10.1-10.101,10.1C94.5,35.6,90,31,90,25.4V11.1H49.5
			V25.4c0,5.5-4.5,10.1-10.1,10.1S29.3,31,29.3,25.4V11.1H8.4c-4.7,0-8.6,3.801-8.6,8.5V129.4c0,4.699,3.8,8.5,8.6,8.5h122.8
			c4.7,0,8.6-3.801,8.6-8.5V19.7C139.6,14.9,135.7,11.2,131.1,11.2z M128.6,119.9c0,4-3.199,7.199-7.3,7.199H17.6
			c-4,0-7.3-3.199-7.3-7.199V43.6h118.2V119.9H128.6z"/>
		<path id="XMLID_4238_" fill="#FFFFFF" d="M5,40.7V124c0,4.3,3.5,7.9,8,7.9h113.2c4.3,0,8-3.5,8-7.9V40.7H5z M46.9,121.8
			L46.9,121.8 M73.5,121.8L73.5,121.8"/>
		<g id="XMLID_4227_">
			<rect id="XMLID_4237_" x="48.5" y="53.1" fill="#E7328C" width="17.4" height="17.4"/>
			<rect id="XMLID_4236_" x="73.2" y="53.1" fill="#E7328C" width="17.399" height="17.4"/>
			<rect id="XMLID_4235_" x="97.9" y="53.1" fill="#E7328C" width="17.5" height="17.4"/>
			<rect id="XMLID_4234_" x="23.8" y="77.7" fill="#E7328C" width="17.5" height="17.399"/>
			<rect id="XMLID_4233_" x="48.5" y="77.7" fill="#E7328C" width="17.4" height="17.399"/>
			<rect id="XMLID_4232_" x="73.2" y="77.7" fill="#E7328C" width="17.399" height="17.399"/>
			<rect id="XMLID_4231_" x="97.9" y="77.7" fill="#E7328C" width="17.5" height="17.399"/>
			<rect id="XMLID_4230_" x="23.8" y="102.1" fill="#E7328C" width="17.5" height="17.4"/>
			<rect id="XMLID_4229_" x="48.5" y="102.1" fill="#E7328C" width="17.4" height="17.4"/>
			<rect id="XMLID_4228_" x="73.2" y="102.1" fill="#E7328C" width="17.399" height="17.4"/>
		</g>
	</g>
	<g id="XMLID_4191_">
		<path id="XMLID_4223_" fill="#FFFFFF" d="M122.6,91C106.9,91,94.2,103.7,94.2,119.4c0,15.6,12.7,28.399,28.399,28.399
			c15.7,0,28.4-12.7,28.4-28.399C151,103.6,138.4,91,122.6,91z M127.2,120.6c0,1.5-1.2,2.7-2.7,2.7H109c-1.5,0-2.7-1.2-2.7-2.7
			s1.2-2.699,2.7-2.699h12.7V105.1c0-1.5,1.2-2.699,2.7-2.699s2.699,1.199,2.699,2.699L127.2,120.6L127.2,120.6z"/>
		<path id="XMLID_4198_" fill="#A8AAAB" d="M122.6,87.2c-17.8,0-32.3,14.399-32.3,32.2c0,17.8,14.4,32.199,32.3,32.199
			C140.4,151.6,154.9,137.2,154.9,119.4C154.8,101.5,140.5,87.2,122.6,87.2z M122.6,147.6C106.9,147.6,94.2,134.9,94.2,119.2
			s12.7-28.4,28.399-28.4c15.7,0,28.4,12.7,28.4,28.4S138.4,147.6,122.6,147.6z"/>
		<path id="XMLID_4193_" fill="#E7328C" d="M124.5,102.3c-1.5,0-2.7,1.2-2.7,2.7v12.7h-12.7c-1.5,0-2.699,1.2-2.699,2.7
			s1.199,2.699,2.699,2.699h15.5c1.5,0,2.7-1.199,2.7-2.699V105.1C127.2,103.6,126,102.3,124.5,102.3z"/>
	</g>
</g>
</svg>
