<?xml version="1.0" encoding="utf-8"?>
<!-- Generator: Adobe Illustrator 19.0.0, SVG Export Plug-In . SVG Version: 6.00 Build 0)  -->
<svg version="1.1" id="Layer_1" xmlns="http://www.w3.org/2000/svg" xmlns:xlink="http://www.w3.org/1999/xlink" x="0px" y="0px"
	 viewBox="-408 206 142.9 150" style="enable-background:new -408 206 142.9 150;" xml:space="preserve">
<style type="text/css">
	.st0{fill:#E7328C;}
	.st1{fill:#A8AAAB;}
	.st2{fill:#FFFFFF;}
</style>
<g id="XMLID_4247_">
	<path id="XMLID_4257_" class="st0" d="M-274.6,206h-72.8c-5.2,0-9.4,4.2-9.4,9.4v43.9c0,5.2,4.2,9.4,9.4,9.4h32.3
		c-0.7,5.3-3.5,11.4-11.8,15.5c15.3,0.1,23.4-8.2,27.6-15.5h24.7c5.2,0,9.4-4.2,9.4-9.4v-43.9C-265.2,210.2-269.4,206-274.6,206z"/>
	<g id="XMLID_4248_">
		<path id="XMLID_4252_" class="st1" d="M-337.1,222.3h-63.8c-3.9,0-7.1,3.2-7.1,7.1v119.5c0,3.9,3.2,7.1,7.1,7.1h63.8
			c3.9,0,7.1-3.2,7.1-7.1V229.4C-330,225.5-333.2,222.3-337.1,222.3z M-373.9,228.2c0-0.6,0.5-1.1,1.1-1.1h7.6
			c0.6,0,1.1,0.5,1.1,1.1v0.3c0,0.6-0.5,1.1-1.1,1.1h-7.6c-0.6,0-1.1-0.5-1.1-1.1V228.2z M-369,353.1c-3.1,0-5.6-2.5-5.6-5.6
			c0-3.1,2.5-5.6,5.6-5.6s5.6,2.5,5.6,5.6C-363.4,350.6-365.9,353.1-369,353.1z M-335.5,338.9h-67.1V231.7h67.1V338.9z"/>
		<rect id="XMLID_4251_" x="-402.6" y="231.7" class="st2" width="67.1" height="107.2"/>
		<path id="XMLID_4250_" class="st2" d="M-372.8,229.6h7.6c0.6,0,1.1-0.5,1.1-1.1v-0.3c0-0.6-0.5-1.1-1.1-1.1h-7.6
			c-0.6,0-1.1,0.5-1.1,1.1v0.3C-373.9,229.1-373.4,229.6-372.8,229.6z"/>
		<circle id="XMLID_4249_" class="st2" cx="-369" cy="347.4" r="5.6"/>
	</g>
</g>
</svg>
