<?xml version="1.0" encoding="utf-8"?>
<!-- Generator: Adobe Illustrator 16.0.0, SVG Export Plug-In . SVG Version: 6.00 Build 0)  -->
<!DOCTYPE svg PUBLIC "-//W3C//DTD SVG 1.1//EN" "http://www.w3.org/Graphics/SVG/1.1/DTD/svg11.dtd">
<svg version="1.1" id="Layer_1" xmlns="http://www.w3.org/2000/svg" xmlns:xlink="http://www.w3.org/1999/xlink" x="0px" y="0px"
	 width="155px" height="151px" viewBox="0 0 155 151" enable-background="new 0 0 155 151" xml:space="preserve">
<g id="XMLID_4247_">
	<path id="XMLID_4257_" fill="#E7328C" d="M139.5,0.5H66.1c-5.2,0-9.5,4.2-9.5,9.5v44.2c0,5.2,4.2,9.5,9.5,9.5h32.6
		C98,69,95.2,75.2,86.8,79.3C102.2,79.4,110.4,71,114.6,63.7h24.9c5.2,0,9.5-4.2,9.5-9.5V10C149,4.7,144.7,0.5,139.5,0.5z"/>
	<g id="XMLID_4248_">
		<path id="XMLID_4252_" fill="#A8AAAB" d="M76.4,16.9H12.1c-3.9,0-7.2,3.199-7.2,7.1v120.3c0,3.9,3.2,7.101,7.2,7.101h64.3
			c3.9,0,7.2-3.2,7.2-7.101V24.1C83.6,20.1,80.4,16.9,76.4,16.9z M39.3,22.8c0-0.6,0.5-1.1,1.1-1.1h7.7c0.6,0,1.1,0.5,1.1,1.1v0.3
			c0,0.601-0.5,1.101-1.1,1.101h-7.7c-0.6,0-1.1-0.5-1.1-1.101V22.8z M44.3,148.6c-3.1,0-5.6-2.5-5.6-5.6s2.5-5.6,5.6-5.6
			c3.1,0,5.6,2.5,5.6,5.6S47.4,148.6,44.3,148.6z M78.1,134.3H10.4V26.4h67.7V134.3L78.1,134.3z"/>
		<rect id="XMLID_4251_" x="10.4" y="26.4" fill="#FFFFFF" width="67.7" height="107.899"/>
		<path id="XMLID_4250_" fill="#FFFFFF" d="M40.4,24.3h7.7c0.6,0,1.1-0.5,1.1-1.1v-0.3c0-0.601-0.5-1.101-1.1-1.101h-7.7
			c-0.6,0-1.1,0.5-1.1,1.101v0.3C39.3,23.8,39.8,24.3,40.4,24.3z"/>
		<ellipse id="XMLID_4249_" fill="#FFFFFF" cx="44.3" cy="142.8" rx="5.6" ry="5.6"/>
	</g>
</g>
</svg>
