<?xml version="1.0" encoding="utf-8"?>
<!-- Generator: Adobe Illustrator 16.0.0, SVG Export Plug-In . SVG Version: 6.00 Build 0)  -->
<!DOCTYPE svg PUBLIC "-//W3C//DTD SVG 1.1//EN" "http://www.w3.org/Graphics/SVG/1.1/DTD/svg11.dtd">
<svg version="1.1" id="Layer_1" xmlns="http://www.w3.org/2000/svg" xmlns:xlink="http://www.w3.org/1999/xlink" x="0px" y="0px"
	 width="155px" height="151px" viewBox="0 0 155 151" enable-background="new 0 0 155 151" xml:space="preserve">
<g id="XMLID_4258_">
	<path id="XMLID_4266_" fill="#A8AAAB" d="M40.388,90.302c-0.16-6.792-4.634-12.384-12.145-12.384
		c-7.91,0-11.984,5.592-12.144,12.384C16.1,116.348,40.468,115.868,40.388,90.302L40.388,90.302z M0.2,136.242
		c0.08-5.912,0.639-12.225,3.196-17.018c2.557-4.874,7.59-9.508,13.422-9.508h1.199l7.99,12.064l0.16-6.152l-1.278-1.598
		l3.355-2.478l3.356,2.478l-1.278,1.598l0.16,6.152l7.99-12.064h1.198c5.833,0,10.786,4.474,13.343,9.508
		c2.557,4.873,3.116,11.186,3.196,17.098L0.2,136.242L0.2,136.242z"/>
	<path id="XMLID_4263_" fill="#A8AAAB" d="M139.221,90.302c-0.16-6.792-4.635-12.384-12.145-12.384
		c-7.91,0-11.984,5.592-12.145,12.384C114.932,116.348,139.301,115.868,139.221,90.302L139.221,90.302z M99.112,136.242
		c0.08-5.912,0.64-12.225,3.196-17.018c2.557-4.874,7.59-9.508,13.422-9.508h1.199l7.989,12.064l0.16-6.152l-1.278-1.598
		l3.355-2.478l3.355,2.478l-1.278,1.598l0.159,6.152l7.99-12.064h1.199c5.832,0,10.785,4.474,13.342,9.508
		c2.557,4.873,3.116,11.186,3.196,17.098L99.112,136.242L99.112,136.242z"/>
	<path id="XMLID_4260_" fill="#A8AAAB" d="M91.282,28.063c-0.159-6.792-4.634-12.385-12.144-12.385
		c-7.91,0-11.985,5.593-12.145,12.385C66.914,54.108,91.362,53.789,91.282,28.063L91.282,28.063z M51.094,74.082
		c0.08-5.912,0.639-12.224,3.196-17.018c2.557-4.873,7.59-9.508,13.423-9.508h1.198l7.99,12.064l0.16-6.152l-1.278-1.598
		l3.356-2.477l3.355,2.477l-1.279,1.598l0.16,6.152l7.99-12.064h1.198c5.833,0,10.786,4.475,13.343,9.508
		c2.557,4.873,3.115,11.186,3.195,17.098L51.094,74.082L51.094,74.082z"/>
	<path id="XMLID_4259_" fill="#E7328C" d="M79.139,106.121l-12.385,7.19c-1.837,1.039-4.154,0.399-5.273-1.358l0,0
		c-1.039-1.837-0.399-4.154,1.358-5.192l10.466-5.993c1.198-0.719,1.917-1.917,1.917-3.275V85.428c0-2.077,1.678-3.835,3.835-3.835
		l0,0c2.077,0,3.834,1.678,3.834,3.835v12.064c0,1.358,0.72,2.637,1.918,3.275l10.467,5.993c1.838,1.038,2.477,3.355,1.358,5.192
		l0,0c-1.039,1.838-3.356,2.478-5.273,1.358L79.139,106.121L79.139,106.121z"/>
</g>
</svg>
