<?xml version="1.0" encoding="utf-8"?>
<!-- Generator: Adobe Illustrator 19.0.0, SVG Export Plug-In . SVG Version: 6.00 Build 0)  -->
<svg version="1.1" id="Layer_1" xmlns="http://www.w3.org/2000/svg" xmlns:xlink="http://www.w3.org/1999/xlink" x="0px" y="0px"
	 viewBox="-383 206 192.4 150" style="enable-background:new -383 206 192.4 150;" xml:space="preserve">
<style type="text/css">
	.st0{fill:#A8AAAB;}
	.st1{fill:#E7328C;}
</style>
<g id="XMLID_4258_">
	<path id="XMLID_4266_" class="st0" d="M-333.1,298.8c-0.2-8.4-5.8-15.4-15.1-15.4c-9.8,0-14.9,7-15.1,15.4
		C-363.3,331.2-333,330.7-333.1,298.8L-333.1,298.8z M-383,356c0.1-7.4,0.8-15.2,4-21.2c3.2-6.1,9.4-11.8,16.7-11.8h1.5l9.9,15
		l0.2-7.7l-1.6-2l4.2-3.1l4.2,3.1l-1.6,2l0.2,7.7l9.9-15h1.5c7.2,0,13.4,5.6,16.6,11.8c3.2,6.1,3.9,13.9,4,21.3L-383,356L-383,356z"
		/>
	<path id="XMLID_4263_" class="st0" d="M-210.3,298.8c-0.2-8.4-5.8-15.4-15.1-15.4c-9.8,0-14.9,7-15.1,15.4
		C-240.5,331.2-210.2,330.7-210.3,298.8L-210.3,298.8z M-260.2,356c0.1-7.4,0.8-15.2,4-21.2c3.2-6.1,9.4-11.8,16.7-11.8h1.5l9.9,15
		l0.2-7.7l-1.6-2l4.2-3.1l4.2,3.1l-1.6,2l0.2,7.7l9.9-15h1.5c7.2,0,13.4,5.6,16.6,11.8c3.2,6.1,3.9,13.9,4,21.3L-260.2,356
		L-260.2,356z"/>
	<path id="XMLID_4260_" class="st0" d="M-269.9,221.4c-0.2-8.4-5.8-15.4-15.1-15.4c-9.8,0-14.9,7-15.1,15.4
		C-300.1,253.8-269.8,253.4-269.9,221.4L-269.9,221.4z M-319.8,278.7c0.1-7.4,0.8-15.2,4-21.2c3.2-6.1,9.4-11.8,16.7-11.8h1.5
		l9.9,15l0.2-7.7l-1.6-2l4.2-3.1l4.2,3.1l-1.6,2l0.2,7.7l9.9-15h1.5c7.2,0,13.4,5.6,16.6,11.8c3.2,6.1,3.9,13.9,4,21.3L-319.8,278.7
		L-319.8,278.7z"/>
	<path id="XMLID_4259_" class="st1" d="M-285,318.5l-15.4,8.9c-2.3,1.3-5.2,0.5-6.5-1.7l0,0c-1.3-2.3-0.5-5.2,1.7-6.5l13-7.5
		c1.5-0.9,2.4-2.4,2.4-4.1v-15c0-2.6,2.1-4.8,4.8-4.8l0,0c2.6,0,4.8,2.1,4.8,4.8v15c0,1.7,0.9,3.3,2.4,4.1l13,7.5
		c2.3,1.3,3.1,4.2,1.7,6.5l0,0c-1.3,2.3-4.2,3.1-6.5,1.7L-285,318.5L-285,318.5z"/>
</g>
</svg>
