<?xml version="1.0" encoding="utf-8"?>
<!-- Generator: Adobe Illustrator 19.0.0, SVG Export Plug-In . SVG Version: 6.00 Build 0)  -->
<svg version="1.1" id="Layer_1" xmlns="http://www.w3.org/2000/svg" xmlns:xlink="http://www.w3.org/1999/xlink" x="0px" y="0px"
	 viewBox="-466 267.6 26.1 26.4" style="enable-background:new -466 267.6 26.1 26.4;" xml:space="preserve">
<style type="text/css">
	.st0{fill:#4D4D4E;}
</style>
<g id="fJROCy.tif_1_">
	<g id="XMLID_5519_">
		<path id="XMLID_5534_" class="st0" d="M-452.5,267.7C-452.5,267.7-452.5,267.8-452.5,267.7c-0.3,0-0.6,0-0.9,0c0,0,0,0,0,0
			C-453.1,267.7-452.8,267.7-452.5,267.7z"/>
		<path id="XMLID_5533_" class="st0" d="M-453.4,267.8c0.3,0,0.6,0,0.9,0c6.9,0.2,11.5,5.5,12.4,10.6c0,0,0,0-0.1,0
			c-0.3-0.2-0.7-0.3-1.1-0.3c-0.4,0-0.8,0-1.2,0c-0.1,0-0.2,0-0.2-0.2c-0.1-1.1-0.3-2.1-0.8-3.1c-1-1.9-2.5-3.2-4.5-3.9
			c-1.2-0.4-2.4-0.5-3.6-0.3c-2.2,0.2-4.2,1.1-6.1,2.4c-1.8,1.3-3.3,3-4.3,5c0,0.1-0.1,0.1-0.2,0.1c-0.4,0-0.9,0-1.3,0
			c-1,0-1.8,0.3-2.5,1.1c0,0,0,0-0.1,0C-465.2,273.3-460.2,268-453.4,267.8z"/>
		<path id="XMLID_5532_" class="st0" d="M-465.8,283.1c0.3,0.3,0.7,0.6,1.1,0.8c0.4,0.2,0.9,0.2,1.4,0.2c0.1,0,0.2,0,0.2,0.2
			c0.3,2.4,1.4,4.2,3.4,5.6c0.9,0.6,1.9,1,3,1.1c1.7,0.3,3.4,0.1,5-0.5c1.9-0.6,3.6-1.7,5-3.1c1-1,1.8-2,2.5-3.2
			c0-0.1,0.1-0.1,0.2-0.1c1.2,0,2.4,0,3.6,0c0.1,0,0.1,0,0.1,0.1c-0.5,1.9-1.4,3.6-2.7,5.1c-1.1,1.3-2.5,2.4-4.1,3.2
			c-1.2,0.6-2.4,1-3.7,1.2c-0.8,0.1-1.6,0.2-2.3,0.2c-1.5,0-3-0.3-4.5-0.9c-1.8-0.7-3.4-1.7-4.7-3.1c-1.7-1.8-2.9-3.9-3.4-6.4
			C-465.7,283.4-465.8,283.2-465.8,283.1z"/>
		<path id="XMLID_5531_" class="st0" d="M-454.4,282.1c0.3-0.8,0.7-1.6,1-2.5c0.1-0.2,0.1-0.3,0.1-0.5c0-0.2-0.1-0.3-0.2-0.3
			c0,0-0.1,0-0.1,0c-0.1,0-0.1,0-0.1-0.1c0-0.1,0-0.1,0.1-0.1c0.4,0,0.9,0,1.3,0c0,0,0.1,0,0.1,0.1c0,0.1,0,0.1-0.1,0.1
			c-0.3,0-0.4,0.2-0.5,0.4c-0.3,0.7-0.6,1.5-0.9,2.2c-0.4,0.9-0.7,1.8-1.1,2.8c-0.1,0.2-0.2,0.4-0.3,0.5c-0.1,0.1-0.3,0.2-0.5,0.2
			c0.4-0.6,0.5-1.2,0.8-1.8c0-0.1,0-0.1,0-0.2c-0.5-1.1-1-2.1-1.5-3.2c-0.1-0.2-0.2-0.5-0.4-0.7c-0.3-0.4-0.7-0.4-1.1-0.1
			c-0.2,0.2-0.4,0.5-0.6,0.7c-0.2,0.2-0.3,0.4-0.5,0.7c-0.1,0.1-0.1,0.1,0,0.2c0.6,0.8,1.2,1.7,1.7,2.5c0,0,0.1,0.1,0.1,0.1
			c-0.3,0-0.6,0-0.9,0c-0.1,0-0.1,0-0.1-0.1c-0.4-0.6-0.8-1.2-1.2-1.8c-0.1-0.1-0.1-0.1-0.2,0c-0.3,0.4-0.6,0.8-0.9,1.2
			c-0.2,0.3-0.1,0.5,0.2,0.5c0.1,0,0.1,0,0.1,0.1c0,0.1-0.1,0.1-0.1,0.1c-0.4,0-0.8,0-1.2,0c0,0,0-0.1,0-0.1
			c0.5-0.7,1.1-1.4,1.6-2.2c0.1-0.1,0.1-0.1,0-0.2c-0.5-0.7-0.9-1.4-1.4-2.1c0,0-0.1-0.1-0.1-0.1c0.3,0,0.6,0,1,0
			c0.1,0,0.1,0.1,0.1,0.1c0.3,0.5,0.6,0.9,0.9,1.4c0,0,0,0.1,0.1,0.1c0.3-0.3,0.5-0.7,0.8-1c0.1-0.2,0.3-0.3,0.4-0.5
			c0-0.1,0.1-0.1,0.1-0.1c0.9,0,1.8,0,2.7,0c0.1,0,0.1,0,0.1,0.1c0,0.1,0,0.1-0.1,0.1c-0.1,0-0.1,0-0.2,0c-0.2,0-0.3,0.2-0.3,0.4
			c0,0.2,0.1,0.3,0.2,0.5C-455.2,280.5-454.8,281.3-454.4,282.1C-454.5,282.1-454.4,282.1-454.4,282.1z"/>
		<path id="XMLID_5527_" class="st0" d="M-450.9,285.6c-0.4,0-1-0.1-1.4-0.4c-0.5-0.3-0.6-0.6-0.2-1.1c0.2-0.3,0.4-0.5,0.6-0.7
			c0.1-0.1,0.1-0.1,0-0.2c-0.4-0.3-0.5-0.6-0.2-1c0.2-0.2,0.3-0.4,0.5-0.5c0.1,0,0.1-0.1,0-0.1c-0.6-0.3-0.8-0.8-0.8-1.4
			c0-0.7,0.4-1.1,1-1.4c0.5-0.2,1-0.3,1.5-0.1c0.1,0,0.2,0,0.2,0c0.5,0,1,0,1.6,0c0.1,0,0.1,0,0.1,0.1c0,0.3,0,0.3-0.3,0.3
			c-0.1,0-0.3,0-0.4,0c-0.2,0-0.2,0.1-0.2,0.3c0.1,0.2,0.2,0.4,0.2,0.5c0.2,0.9-0.4,1.6-1.2,1.8c-0.4,0.1-0.8,0.1-1.2,0
			c-0.1,0-0.1,0-0.2,0c-0.1,0.1-0.2,0.2-0.2,0.3c-0.1,0.2,0,0.3,0.2,0.4c0.2,0.1,0.4,0.1,0.5,0.1c0.5,0,1.1,0,1.6,0.1
			c0.2,0,0.3,0.1,0.5,0.1c0.6,0.3,0.8,1,0.4,1.5c-0.3,0.5-0.8,0.8-1.3,1C-450,285.6-450.4,285.6-450.9,285.6z M-450.4,285
			c0.4,0,0.7,0,1.1-0.2c0.3-0.1,0.6-0.3,0.7-0.6c0.1-0.3,0-0.5-0.3-0.6c-0.1,0-0.3-0.1-0.4-0.1c-0.7,0-1.5,0-2.2-0.1
			c-0.1,0-0.1,0-0.1,0c-0.1,0.2-0.2,0.3-0.3,0.5c-0.2,0.4-0.1,0.6,0.3,0.8C-451.3,285-450.8,285-450.4,285z M-451.6,280.4
			c0,0.1,0,0.3,0,0.4c0.1,0.4,0.3,0.7,0.7,0.8c0.4,0.1,0.7-0.1,0.9-0.5c0.3-0.5,0.3-1.1,0.2-1.7c-0.1-0.3-0.3-0.6-0.7-0.6
			c-0.4-0.1-0.7,0.1-0.9,0.4C-451.5,279.6-451.6,280-451.6,280.4z"/>
		<path id="XMLID_5524_" class="st0" d="M-466,281.1c0-1.4,1.1-2.5,2.5-2.5c1.4,0,2.5,1.1,2.5,2.5c0,1.4-1.1,2.5-2.5,2.5
			C-464.9,283.6-466,282.4-466,281.1z M-465.2,280.9c0,0.7,0.2,1.2,0.5,1.6c0.6,0.8,1.6,0.8,2.2,0.1c0.8-0.8,0.8-2.3,0-3.1
			c-0.6-0.7-1.4-0.7-2.1-0.1C-465,279.8-465.1,280.4-465.2,280.9z"/>
		<path id="XMLID_5523_" class="st0" d="M-443.8,283.4c0.3-0.3,0.3-0.6,0.3-0.9c0-1.2,0-2.4,0-3.6c0-0.1,0-0.1,0.1-0.1
			c0.2,0,0.4,0,0.6,0c0.1,0,0.1,0,0.1,0.1c0,0.2,0,0.5,0,0.7c0.1-0.1,0.2-0.2,0.3-0.3c0.2-0.2,0.4-0.4,0.7-0.5
			c0.8-0.3,1.5,0,1.7,0.8c0,0.2,0.1,0.4,0.1,0.6c0,1.1,0,2.1,0,3.2c0,0.1,0,0.1-0.1,0.1c-0.2,0-0.4,0-0.6,0c-0.1,0-0.1,0-0.1-0.1
			c0-0.9,0-1.9,0-2.8c0-0.2,0-0.4,0-0.6c-0.1-0.6-0.4-0.8-1-0.6c-0.3,0.1-0.6,0.3-0.8,0.6c0,0,0,0.1,0,0.2c0,1.1,0,2.2,0,3.2
			c0,0.1,0,0.2-0.1,0.1C-443.1,283.4-443.4,283.4-443.8,283.4z"/>
		<path id="XMLID_5520_" class="st0" d="M-444.3,281.6c0.1,0,0.2,0.1,0.1,0.2c-0.1,0.6-0.4,1.1-1,1.4c-0.6,0.4-1.5,0.3-2.1-0.2
			c-0.5-0.4-0.7-0.9-0.8-1.5c-0.1-0.6,0-1.2,0.2-1.7c0.6-1.3,1.9-1.5,2.7-1.1c0.7,0.3,1,1,1,1.6c0,0.1-0.1,0.1-0.1,0.1
			c-0.4,0-0.8,0-1.2,0c-0.6,0-1.2,0-1.8,0c0,0-0.1,0-0.1,0.1c0,0.7,0.2,1.3,0.8,1.8c0.5,0.4,1.2,0.4,1.7,0.1
			c0.3-0.2,0.4-0.5,0.5-0.7C-444.4,281.7-444.4,281.6-444.3,281.6z M-446.3,280.2c0.3,0,0.5,0,0.8,0c0.3,0,0.3,0,0.3-0.3
			c0-0.4-0.3-0.7-0.6-0.8c-0.4-0.1-0.7,0-1,0.2c-0.3,0.2-0.4,0.5-0.4,0.8c0,0.1,0,0.1,0.1,0.1C-446.9,280.2-446.6,280.2-446.3,280.2
			z"/>
	</g>
</g>
</svg>
