<?xml version="1.0" encoding="utf-8"?>
<!-- Generator: Adobe Illustrator 16.0.0, SVG Export Plug-In . SVG Version: 6.00 Build 0)  -->
<!DOCTYPE svg PUBLIC "-//W3C//DTD SVG 1.1//EN" "http://www.w3.org/Graphics/SVG/1.1/DTD/svg11.dtd">
<svg version="1.1" id="Layer_1" xmlns="http://www.w3.org/2000/svg" xmlns:xlink="http://www.w3.org/1999/xlink" x="0px" y="0px"
	 width="40px" height="30px" viewBox="0 0 40 30" enable-background="new 0 0 40 30" xml:space="preserve">
<g id="fJROCy.tif_1_">
	<g id="XMLID_5519_">
		<path id="XMLID_5534_" fill="#4D4D4E" d="M20.868,0.115C20.868,0.115,20.868,0.229,20.868,0.115c-0.342,0-0.683,0-1.024,0l0,0
			C20.298,0.115,20.526,0.115,20.868,0.115z"/>
		<path id="XMLID_5533_" fill="#4D4D4E" d="M19.957,0.229c0.341,0,0.682,0,1.024,0c7.736,0.228,12.966,6.273,13.99,11.976
			c0,0,0,0-0.113,0c-0.342-0.229-0.797-0.342-1.25-0.342c-0.455,0-0.91,0-1.365,0c-0.115,0-0.229,0-0.229-0.229
			c-0.113-1.254-0.34-2.394-0.91-3.535c-1.137-2.167-2.842-3.65-5.117-4.448c-1.365-0.456-2.73-0.571-4.096-0.342
			c-2.502,0.228-4.777,1.254-6.938,2.737c-2.047,1.483-3.754,3.422-4.891,5.703c0,0.114-0.114,0.114-0.227,0.114
			c-0.456,0-1.024,0-1.479,0c-1.137,0-2.047,0.342-2.844,1.255c0,0,0,0-0.113,0C6.536,6.502,12.223,0.458,19.957,0.229z"/>
		<path id="XMLID_5532_" fill="#4D4D4E" d="M5.853,17.566c0.341,0.342,0.796,0.684,1.251,0.912c0.456,0.228,1.024,0.228,1.593,0.228
			c0.114,0,0.227,0,0.227,0.228c0.341,2.738,1.593,4.792,3.868,6.389c1.023,0.684,2.161,1.142,3.412,1.255
			c1.934,0.342,3.867,0.114,5.687-0.571c2.162-0.684,4.096-1.938,5.688-3.535c1.139-1.141,2.047-2.282,2.844-3.65
			c0-0.114,0.113-0.114,0.227-0.114c1.365,0,2.73,0,4.096,0c0.113,0,0.113,0,0.113,0.114c-0.568,2.168-1.592,4.106-3.07,5.816
			c-1.252,1.483-2.844,2.738-4.664,3.651c-1.365,0.684-2.729,1.141-4.209,1.369c-0.91,0.113-1.82,0.228-2.616,0.228
			c-1.706,0-3.412-0.342-5.118-1.027c-2.047-0.797-3.867-1.938-5.346-3.535c-1.934-2.054-3.299-4.448-3.868-7.3
			C5.967,17.908,5.853,17.681,5.853,17.566z"/>
		<path id="XMLID_5531_" fill="#4D4D4E" d="M18.82,16.426c0.341-0.913,0.796-1.825,1.137-2.851c0.114-0.229,0.114-0.343,0.114-0.572
			c0-0.228-0.114-0.341-0.228-0.341h-0.114c-0.114,0-0.114,0-0.114-0.114c0-0.114,0-0.114,0.114-0.114c0.456,0,1.023,0,1.479,0
			c0,0,0.113,0,0.113,0.114c0,0.114,0,0.114-0.113,0.114c-0.341,0-0.457,0.228-0.57,0.457c-0.341,0.798-0.682,1.71-1.023,2.509
			c-0.455,1.026-0.796,2.054-1.251,3.193c-0.114,0.229-0.228,0.457-0.341,0.571c-0.114,0.113-0.341,0.228-0.569,0.228
			c0.456-0.686,0.569-1.369,0.91-2.053c0-0.115,0-0.115,0-0.229c-0.569-1.253-1.137-2.395-1.706-3.648
			c-0.114-0.229-0.227-0.57-0.455-0.799c-0.341-0.456-0.796-0.456-1.251-0.114c-0.228,0.228-0.455,0.57-0.683,0.799
			c-0.228,0.228-0.341,0.456-0.569,0.797c-0.113,0.114-0.113,0.114,0,0.229c0.683,0.913,1.365,1.939,1.934,2.851l0.114,0.115
			c-0.341,0-0.683,0-1.024,0c-0.114,0-0.114,0-0.114-0.115c-0.455-0.684-0.91-1.367-1.365-2.052c-0.114-0.114-0.114-0.114-0.228,0
			c-0.341,0.455-0.682,0.912-1.023,1.368c-0.228,0.342-0.114,0.569,0.227,0.569c0.114,0,0.114,0,0.114,0.114
			c0,0.115-0.114,0.115-0.114,0.115c-0.455,0-0.91,0-1.365,0v-0.115c0.569-0.798,1.251-1.597,1.82-2.509
			c0.114-0.114,0.114-0.114,0-0.228c-0.569-0.798-1.023-1.598-1.592-2.395l-0.114-0.114c0.341,0,0.683,0,1.137,0
			c0.114,0,0.114,0.114,0.114,0.114c0.341,0.569,0.683,1.026,1.024,1.597c0,0,0,0.114,0.113,0.114
			c0.341-0.342,0.569-0.798,0.91-1.141c0.114-0.228,0.341-0.342,0.455-0.569c0-0.114,0.114-0.114,0.114-0.114
			c1.023,0,2.047,0,3.071,0c0.114,0,0.114,0,0.114,0.114c0,0.114,0,0.114-0.114,0.114c-0.114,0-0.114,0-0.228,0
			c-0.228,0-0.341,0.228-0.341,0.456c0,0.228,0.113,0.343,0.228,0.571C17.91,14.601,18.365,15.513,18.82,16.426
			C18.706,16.426,18.82,16.426,18.82,16.426z"/>
		<path id="XMLID_5527_" fill="#4D4D4E" d="M22.688,20.417c-0.455,0-1.137-0.114-1.594-0.456c-0.568-0.342-0.682-0.684-0.226-1.255
			c0.226-0.342,0.455-0.569,0.683-0.798c0.113-0.113,0.113-0.113,0-0.228c-0.457-0.344-0.57-0.686-0.229-1.141
			c0.229-0.229,0.342-0.458,0.568-0.572c0.113,0,0.113-0.113,0-0.113c-0.682-0.341-0.91-0.912-0.91-1.596
			c0-0.798,0.455-1.255,1.136-1.597c0.57-0.228,1.139-0.342,1.707-0.114c0.113,0,0.229,0,0.229,0c0.568,0,1.137,0,1.82,0
			c0.113,0,0.113,0,0.113,0.114c0,0.341,0,0.341-0.342,0.341c-0.113,0-0.342,0-0.455,0c-0.229,0-0.229,0.114-0.229,0.343
			c0.115,0.229,0.229,0.457,0.229,0.571c0.229,1.026-0.455,1.824-1.365,2.051c-0.455,0.114-0.91,0.114-1.365,0
			c-0.113,0-0.113,0-0.227,0c-0.115,0.114-0.229,0.23-0.229,0.344c-0.113,0.229,0,0.342,0.229,0.456
			c0.227,0.114,0.455,0.114,0.568,0.114c0.568,0,1.252,0,1.82,0.113c0.227,0,0.34,0.114,0.568,0.114
			c0.684,0.342,0.91,1.141,0.455,1.711c-0.342,0.571-0.91,0.913-1.479,1.141C23.711,20.417,23.256,20.417,22.688,20.417z
			 M23.256,19.733c0.455,0,0.797,0,1.252-0.229c0.34-0.113,0.682-0.342,0.795-0.685c0.115-0.342,0-0.57-0.342-0.684
			c-0.113,0-0.34-0.114-0.453-0.114c-0.797,0-1.707,0-2.504-0.114c-0.113,0-0.113,0-0.113,0c-0.113,0.229-0.227,0.342-0.34,0.57
			c-0.229,0.455-0.115,0.685,0.34,0.913C22.232,19.733,22.801,19.733,23.256,19.733z M21.891,14.486c0,0.115,0,0.343,0,0.457
			c0.113,0.457,0.342,0.798,0.797,0.912c0.455,0.113,0.795-0.114,1.023-0.569c0.342-0.57,0.342-1.255,0.227-1.939
			c-0.113-0.343-0.342-0.684-0.795-0.684c-0.455-0.114-0.797,0.114-1.025,0.456C22.004,13.575,21.891,14.03,21.891,14.486z"/>
		<path id="XMLID_5524_" fill="#4D4D4E" d="M5.625,15.285c0-1.597,1.251-2.852,2.844-2.852s2.844,1.255,2.844,2.852
			s-1.251,2.852-2.844,2.852S5.625,16.768,5.625,15.285z M6.536,15.058c0,0.797,0.227,1.368,0.568,1.824
			c0.683,0.913,1.82,0.913,2.502,0.113c0.91-0.911,0.91-2.623,0-3.535c-0.683-0.798-1.592-0.798-2.388-0.114
			C6.763,13.802,6.649,14.486,6.536,15.058z"/>
		<path id="XMLID_5523_" fill="#4D4D4E" d="M30.764,17.908c0.34-0.342,0.34-0.685,0.34-1.026c0-1.369,0-2.738,0-4.106
			c0-0.114,0-0.114,0.115-0.114c0.227,0,0.455,0,0.682,0c0.113,0,0.113,0,0.113,0.114c0,0.228,0,0.57,0,0.799
			c0.113-0.115,0.229-0.229,0.342-0.343c0.227-0.229,0.455-0.457,0.797-0.57c0.908-0.342,1.705,0,1.934,0.913
			c0,0.228,0.113,0.456,0.113,0.684c0,1.255,0,2.395,0,3.65c0,0.114,0,0.114-0.113,0.114c-0.229,0-0.455,0-0.684,0
			c-0.113,0-0.113,0-0.113-0.114c0-1.026,0-2.168,0-3.193c0-0.229,0-0.457,0-0.685c-0.113-0.685-0.455-0.912-1.137-0.685
			c-0.342,0.115-0.684,0.343-0.91,0.685c0,0,0,0.114,0,0.228c0,1.255,0,2.509,0,3.65c0,0.114,0,0.229-0.115,0.114
			C31.559,17.908,31.219,17.908,30.764,17.908z"/>
		<path id="XMLID_5520_" fill="#4D4D4E" d="M30.195,15.854c0.113,0,0.227,0.113,0.113,0.229c-0.113,0.684-0.455,1.253-1.139,1.597
			c-0.682,0.456-1.705,0.342-2.389-0.229c-0.568-0.456-0.795-1.025-0.908-1.711c-0.115-0.683,0-1.368,0.227-1.938
			c0.682-1.482,2.162-1.71,3.07-1.255c0.797,0.342,1.139,1.141,1.139,1.825c0,0.114-0.113,0.114-0.113,0.114
			c-0.455,0-0.912,0-1.365,0c-0.684,0-1.365,0-2.049,0c0,0-0.113,0-0.113,0.115c0,0.799,0.229,1.481,0.91,2.053
			c0.568,0.456,1.365,0.456,1.934,0.114C29.854,16.54,29.967,16.198,30.195,15.854C30.08,15.968,30.08,15.854,30.195,15.854z
			 M27.92,14.258c0.342,0,0.568,0,0.91,0c0.34,0,0.34,0,0.34-0.342c0-0.456-0.34-0.798-0.682-0.914
			c-0.455-0.114-0.797,0-1.137,0.229c-0.342,0.229-0.455,0.57-0.455,0.912c0,0.114,0,0.114,0.113,0.114
			C27.238,14.258,27.578,14.258,27.92,14.258z"/>
	</g>
</g>
</svg>
