<?xml version="1.0" encoding="utf-8"?>
<!-- Generator: Adobe Illustrator 19.0.0, SVG Export Plug-In . SVG Version: 6.00 Build 0)  -->
<svg version="1.1" id="Layer_1" xmlns="http://www.w3.org/2000/svg" xmlns:xlink="http://www.w3.org/1999/xlink" x="0px" y="0px"
	 viewBox="-461 267.6 36.5 26.4" style="enable-background:new -461 267.6 36.5 26.4;" xml:space="preserve">
<style type="text/css">
	.st0{fill:#4D4D4E;}
</style>
<g id="_x39_YQATy.tif_1_">
	<g id="XMLID_5567_">
		<path id="XMLID_5578_" class="st0" d="M-444.2,267.7c-1.4,0-2.7,0-4,0c-0.1,0-0.3,0.1-0.3,0.2c-0.2,0.4-0.4,0.8-0.6,1.2
			c-1.8,3.7-3.5,7.3-5.3,11c-2.1,4.3-4.1,8.6-6.2,13c0,0.1-0.1,0.2-0.2,0.3c0,0,0,0-0.1,0c3-8.5,5.9-17.1,8.9-25.6
			c-0.1,0-0.1,0-0.2,0c-1.1,0-2.2,0-3.3,0c-0.2,0-0.3,0.1-0.3,0.3c-0.5,2.4-1,4.8-1.5,7.2c-0.6,2.7-1.1,5.3-1.7,8
			c-0.6,3-1.3,6.1-1.9,9.1c-0.1,0.5-0.2,1-0.3,1.5c0,0,0.1,0.1,0.1,0.1c0.1-0.1,0.3-0.2,0.4-0.4c1.5-2.3,2.9-4.6,4.4-6.8
			c0.4-0.6,0.6-1.2,0.5-1.9c0-0.4,0-0.9,0-1.4c0.4,0,0.8,0,1.2,0c0.3,0,0.5-0.1,0.6-0.3c1.5-2.5,3.1-4.9,4.7-7.4
			c0.4-0.6,0.6-1.3,0.6-2c0-0.5,0-1,0-1.5c0.5,0,0.9,0,1.3,0c0.3,0,0.4-0.1,0.6-0.3c0.5-0.8,1-1.6,1.5-2.4
			C-444.9,268.8-444.5,268.3-444.2,267.7z M-436,287.6C-436,287.6-436,287.6-436,287.6c0.4,1.6,0.8,3.2,1.1,4.8c0.7,0,1.3,0,2,0
			c0.7-2.9,1.4-5.8,2.1-8.8c-0.6,0-1.1,0-1.6,0c-0.1,0-0.2,0.1-0.2,0.2c-0.3,1.2-0.5,2.3-0.8,3.5c-0.1,0.4-0.2,0.8-0.3,1.2
			c0,0-0.1,0-0.1,0c-0.1-0.6-0.3-1.2-0.4-1.8c-0.2-0.9-0.4-1.9-0.6-2.8c0-0.1-0.1-0.3-0.2-0.3c-0.6,0-1.1,0-1.7,0
			c-0.3,1.7-0.7,3.3-1,5c-0.1-0.1-0.1-0.1-0.1-0.2c-0.3-1.5-0.6-3-0.9-4.5c0-0.1-0.1-0.3-0.2-0.3c-0.7,0-1.4,0-2.1,0
			c0.3,1.2,0.6,2.4,0.8,3.6c0.4,1.7,0.8,3.3,1.1,5c0,0.2,0.1,0.3,0.3,0.3c0.5,0,1,0,1.4,0c0.3,0,0.3-0.1,0.4-0.3
			c0.3-1.3,0.5-2.6,0.8-3.9C-436.1,288-436.1,287.8-436,287.6z M-453,287.5C-452.9,287.5-452.9,287.5-453,287.5
			c0.2,0.1,0.2,0.2,0.3,0.3c0.9,1.4,1.7,2.9,2.6,4.4c0.1,0.2,0.3,0.3,0.5,0.3c0.5,0,0.9,0,1.4,0c0.3,0,0.4-0.1,0.4-0.4
			c0-2.6,0-5.3,0-7.9c0-0.1,0-0.3,0-0.4c-0.7,0-1.4,0-2.2,0c0,1.4,0,2.8,0,4.2c-0.2-0.1-0.2-0.2-0.3-0.3c-0.6-1.1-1.3-2.1-1.9-3.2
			c-0.3-0.6-0.7-0.8-1.3-0.7c-0.5,0.1-1.1,0-1.7,0c0,2.9,0,5.8,0,8.7c0.7,0,1.3,0,2,0c0.1,0,0.2-0.2,0.2-0.3c0-0.4,0-0.9,0-1.3
			C-453,289.7-453,288.6-453,287.5z M-425.1,272.5c-0.1,0-0.1,0-0.1,0c-0.7,0-1.4,0.1-2.1,0c-0.6-0.1-1,0.2-1.3,0.7
			c-0.2,0.4-0.5,0.8-0.7,1.3c-0.3-0.4-0.5-0.8-0.7-1.1c-0.3-0.7-0.8-1-1.5-0.9c-0.7,0.1-1.3,0-2,0c0.1,0.1,0.1,0.2,0.1,0.2
			c0.8,1.4,1.6,2.8,2.5,4.1c0.1,0.2,0.1,0.4,0,0.6c-0.6,1-1.2,2-1.7,3c-0.3,0.5-0.6,1-0.9,1.6c0.1,0,0.1,0.1,0.1,0.1
			c0.6,0,1.2-0.1,1.8,0c0.8,0.1,1.3-0.2,1.7-0.9c0.2-0.5,0.5-0.9,0.8-1.4c0.1,0.1,0.2,0.2,0.2,0.3c0.3,0.6,0.7,1.1,1,1.7
			c0.2,0.3,0.3,0.4,0.7,0.4c0.6,0,1.2,0,1.8,0c0.3,0,0.5,0,0.8,0c-0.1-0.1-0.1-0.2-0.1-0.3c-0.9-1.5-1.7-2.9-2.6-4.4
			c-0.1-0.2-0.1-0.4,0-0.6c0.3-0.6,0.7-1.1,1-1.7C-426.1,274.2-425.6,273.4-425.1,272.5z M-445.4,278.9c0.2,0,0.3,0,0.4,0
			c0.7,0,1.4,0,2.1,0c0.1,0,0.3-0.1,0.3-0.2c0-0.8,0-1.6,0-2.4c-0.9,0-1.8,0-2.8,0c0-0.3,0-0.7,0-1c0-0.3,0.1-0.3,0.3-0.3
			c0.9,0,1.7,0,2.6,0c0.1,0,0.3,0,0.4,0c-0.1-0.9-0.1-1.7-0.2-2.5c-2,0-4,0-5.9,0c0,3.2,0,6.4,0,9.5c0.9,0,1.8,0,2.8,0
			c0-0.5,0-1,0-1.5C-445.4,280-445.4,279.5-445.4,278.9z M-431.3,289.9c0.2,1,0.7,1.7,1.5,2.2c0.9,0.5,1.8,0.6,2.7,0.4
			c1.4-0.2,2.5-1.4,2.5-2.6c0.1-1.5-0.6-2.4-2.1-2.9c-0.5-0.2-1-0.3-1.5-0.4c-0.3-0.1-0.5-0.3-0.5-0.6c0.1-0.3,0.3-0.5,0.6-0.6
			c0.6-0.1,1,0.1,1.3,0.6c0,0.1,0.2,0.2,0.2,0.2c0.6-0.2,1.1-0.4,1.8-0.6c-0.3-0.8-0.7-1.4-1.4-1.8c-1-0.5-2.1-0.5-3.2,0
			c-1.1,0.5-1.7,1.4-1.7,2.6c0,1.2,0.7,1.9,1.8,2.3c0.6,0.2,1.2,0.4,1.7,0.5c0.4,0.1,0.5,0.3,0.5,0.7c0,0.4-0.3,0.5-0.6,0.5
			c-0.7,0.1-1.3-0.2-1.6-0.9c0-0.1-0.2-0.2-0.3-0.2C-430,289.6-430.6,289.7-431.3,289.9z M-441.6,285.7c0-0.7,0-1.4,0-2
			c-1.9,0-3.7,0-5.6,0c0,0.1,0,0.2,0,0.3c0,2.7,0,5.4,0,8.2c0,0.3,0.1,0.3,0.3,0.3c1.7,0,3.5,0,5.2,0c0.1,0,0.1,0,0.2,0
			c0-0.6,0-1.1,0-1.7c0-0.2-0.1-0.3-0.3-0.3c-0.9,0-1.9,0-2.8,0c-0.1,0-0.3,0-0.4,0c0-0.5,0-1,0-1.5c0.9,0,1.9,0,2.8,0
			c0-0.6,0-1.3,0-1.9c-1,0-1.9,0-2.8,0c0-0.4,0-0.8,0-1.3C-443.9,285.7-442.7,285.7-441.6,285.7z"/>
		<path id="XMLID_5577_" class="st0" d="M-444.2,267.7c-0.4,0.6-0.7,1.1-1,1.6c-0.5,0.8-1,1.6-1.5,2.4c-0.1,0.2-0.3,0.3-0.6,0.3
			c-0.4,0-0.8,0-1.3,0c0,0.5,0,1,0,1.5c0.1,0.8-0.2,1.4-0.6,2c-1.6,2.4-3.1,4.9-4.7,7.4c-0.1,0.2-0.3,0.4-0.6,0.3
			c-0.4,0-0.7,0-1.2,0c0,0.5,0,0.9,0,1.4c0.1,0.7-0.1,1.3-0.5,1.9c-1.5,2.3-2.9,4.6-4.4,6.8c-0.1,0.2-0.3,0.3-0.4,0.4
			c0,0-0.1-0.1-0.1-0.1c0.1-0.5,0.2-1,0.3-1.5c0.6-3,1.3-6.1,1.9-9.1c0.6-2.7,1.1-5.3,1.7-8c0.5-2.4,1-4.8,1.5-7.2
			c0-0.2,0.1-0.3,0.3-0.3c1.1,0,2.2,0,3.3,0c0,0,0.1,0,0.2,0c-3,8.6-5.9,17.1-8.9,25.6c0,0,0,0,0.1,0c0.1-0.1,0.1-0.2,0.2-0.3
			c2.1-4.3,4.1-8.6,6.2-13c1.8-3.7,3.5-7.3,5.3-11c0.2-0.4,0.4-0.8,0.6-1.2c0.1-0.1,0.2-0.2,0.3-0.2
			C-446.9,267.7-445.6,267.7-444.2,267.7z"/>
		<path id="XMLID_5574_" class="st0" d="M-432.3,277.3c0,2.7-2.2,4.8-4.9,4.8c-2.7,0-4.9-2.1-4.9-4.8c0-2.6,2.2-4.8,4.8-4.8
			C-434.5,272.5-432.4,274.6-432.3,277.3z M-436.4,277.2C-436.4,277.2-436.4,277.2-436.4,277.2c0-0.7,0-1.3,0-2
			c0-0.5-0.4-0.9-0.9-0.9c-0.5,0-0.8,0.4-0.8,0.9c0,1.3,0,2.7,0,4c0,0.5,0.4,0.9,0.9,0.9c0.5,0,0.9-0.4,0.9-0.9
			C-436.4,278.6-436.4,277.9-436.4,277.2z"/>
		<path id="XMLID_5573_" class="st0" d="M-436,287.6c0,0.2-0.1,0.4-0.1,0.6c-0.3,1.3-0.5,2.6-0.8,3.9c0,0.2-0.1,0.3-0.4,0.3
			c-0.5,0-1,0-1.4,0c-0.2,0-0.3-0.1-0.3-0.3c-0.4-1.7-0.8-3.3-1.1-5c-0.3-1.2-0.5-2.3-0.8-3.6c0.7,0,1.4,0,2.1,0
			c0.1,0,0.2,0.2,0.2,0.3c0.3,1.5,0.6,3,0.9,4.5c0,0.1,0,0.1,0.1,0.2c0.3-1.6,0.7-3.3,1-5c0.6,0,1.1,0,1.7,0c0.1,0,0.2,0.2,0.2,0.3
			c0.2,0.9,0.4,1.9,0.6,2.8c0.1,0.6,0.3,1.2,0.4,1.8c0,0,0.1,0,0.1,0c0.1-0.4,0.2-0.8,0.3-1.2c0.2-1.2,0.5-2.3,0.8-3.5
			c0-0.1,0.1-0.2,0.2-0.2c0.5,0,1.1,0,1.6,0c-0.7,2.9-1.4,5.9-2.1,8.8c-0.7,0-1.3,0-2,0C-435.3,290.8-435.6,289.2-436,287.6
			C-436,287.6-436,287.6-436,287.6z"/>
		<path id="XMLID_5572_" class="st0" d="M-453,287.5c0,1.1,0,2.2,0,3.3c0,0.4,0,0.9,0,1.3c0,0.1-0.1,0.3-0.2,0.3c-0.7,0-1.3,0-2,0
			c0-2.9,0-5.7,0-8.7c0.6,0,1.1,0,1.7,0c0.6-0.1,1,0.1,1.3,0.7c0.6,1.1,1.3,2.1,1.9,3.2c0.1,0.1,0.1,0.2,0.3,0.3c0-1.4,0-2.8,0-4.2
			c0.7,0,1.4,0,2.2,0c0,0.2,0,0.3,0,0.4c0,2.6,0,5.3,0,7.9c0,0.3-0.1,0.4-0.4,0.4c-0.5,0-0.9,0-1.4,0c-0.3,0-0.4-0.1-0.5-0.3
			c-0.9-1.5-1.7-2.9-2.6-4.4C-452.7,287.7-452.8,287.6-453,287.5C-452.9,287.5-452.9,287.5-453,287.5z"/>
		<path id="XMLID_5571_" class="st0" d="M-425.1,272.5c-0.5,0.9-1,1.7-1.5,2.6c-0.3,0.6-0.7,1.1-1,1.7c-0.1,0.2-0.1,0.4,0,0.6
			c0.9,1.5,1.8,2.9,2.6,4.4c0,0.1,0.1,0.2,0.1,0.3c-0.3,0-0.6,0-0.8,0c-0.6,0-1.2,0-1.8,0c-0.3,0-0.5-0.1-0.7-0.4
			c-0.3-0.6-0.7-1.1-1-1.7c-0.1-0.1-0.1-0.2-0.2-0.3c-0.3,0.5-0.6,0.9-0.8,1.4c-0.3,0.8-0.8,1.1-1.7,0.9c-0.6-0.1-1.2,0-1.8,0
			c0,0,0,0-0.1-0.1c0.3-0.5,0.6-1,0.9-1.6c0.6-1,1.2-2,1.7-3c0.1-0.2,0.1-0.4,0-0.6c-0.8-1.4-1.6-2.8-2.5-4.1c0,0-0.1-0.1-0.1-0.2
			c0.7,0,1.4,0.1,2,0c0.8-0.1,1.2,0.2,1.5,0.9c0.2,0.4,0.4,0.7,0.7,1.1c0.3-0.5,0.5-0.9,0.7-1.3c0.3-0.6,0.6-0.8,1.3-0.7
			c0.7,0.1,1.4,0,2.1,0C-425.2,272.5-425.2,272.5-425.1,272.5z"/>
		<path id="XMLID_5570_" class="st0" d="M-445.4,278.9c0,0.5,0,1,0,1.5c0,0.5,0,1,0,1.5c-0.9,0-1.8,0-2.8,0c0-3.2,0-6.3,0-9.5
			c2,0,3.9,0,5.9,0c0.1,0.8,0.1,1.7,0.2,2.5c-0.2,0-0.3,0-0.4,0c-0.9,0-1.7,0-2.6,0c-0.2,0-0.3,0.1-0.3,0.3c0,0.3,0,0.6,0,1
			c0.9,0,1.8,0,2.8,0c0,0.8,0,1.6,0,2.4c0,0.1-0.2,0.2-0.3,0.2c-0.7,0-1.4,0-2.1,0C-445.1,278.9-445.3,278.9-445.4,278.9z"/>
		<path id="XMLID_5569_" class="st0" d="M-431.3,289.9c0.7-0.1,1.3-0.3,1.9-0.4c0.1,0,0.2,0.1,0.3,0.2c0.4,0.7,0.9,1,1.6,0.9
			c0.3-0.1,0.6-0.2,0.6-0.5c0-0.4-0.1-0.6-0.5-0.7c-0.6-0.2-1.2-0.3-1.7-0.5c-1.1-0.4-1.8-1.1-1.8-2.3c0-1.2,0.5-2.1,1.7-2.6
			c1-0.5,2.1-0.5,3.2,0c0.7,0.4,1.1,1,1.4,1.8c-0.6,0.2-1.2,0.4-1.8,0.6c-0.1,0-0.2-0.1-0.2-0.2c-0.3-0.6-0.7-0.7-1.3-0.6
			c-0.3,0-0.6,0.2-0.6,0.6c-0.1,0.4,0.2,0.5,0.5,0.6c0.5,0.2,1,0.3,1.5,0.4c1.5,0.5,2.2,1.3,2.1,2.9c-0.1,1.3-1.2,2.4-2.5,2.6
			c-1,0.2-1.9,0.1-2.7-0.4C-430.6,291.6-431.1,290.8-431.3,289.9z"/>
		<path id="XMLID_5568_" class="st0" d="M-441.6,285.7c-1.1,0-2.3,0-3.4,0c0,0.4,0,0.8,0,1.3c0.9,0,1.9,0,2.8,0c0,0.6,0,1.3,0,1.9
			c-0.9,0-1.9,0-2.8,0c0,0.5,0,1,0,1.5c0.1,0,0.3,0,0.4,0c0.9,0,1.9,0,2.8,0c0.2,0,0.3,0.1,0.3,0.3c0,0.6,0,1.1,0,1.7
			c-0.1,0-0.2,0-0.2,0c-1.7,0-3.5,0-5.2,0c-0.2,0-0.3-0.1-0.3-0.3c0-2.7,0-5.4,0-8.2c0-0.1,0-0.2,0-0.3c1.9,0,3.7,0,5.6,0
			C-441.6,284.3-441.6,285-441.6,285.7z"/>
	</g>
</g>
</svg>
