<?xml version="1.0" encoding="utf-8"?>
<!-- Generator: Adobe Illustrator 16.0.0, SVG Export Plug-In . SVG Version: 6.00 Build 0)  -->
<!DOCTYPE svg PUBLIC "-//W3C//DTD SVG 1.1//EN" "http://www.w3.org/Graphics/SVG/1.1/DTD/svg11.dtd">
<svg version="1.1" id="Layer_1" xmlns="http://www.w3.org/2000/svg" xmlns:xlink="http://www.w3.org/1999/xlink" x="0px" y="0px"
	 width="40px" height="30px" viewBox="0 0 40 30" enable-background="new 0 0 40 30" xml:space="preserve">
<g id="sN5dd9.tif_1_">
	<g id="XMLID_5586_">
		<path id="XMLID_5609_" fill="#4D4D4E" d="M13.902,3.906c0.644,0.373,1.195,0.838,1.838,1.21c2.665,1.768,5.421,3.535,8.086,5.302
			c1.195,0.744,2.297,1.582,3.492,2.326l0.092,0.094c-0.092,0-0.092,0-0.183,0c-8.914,0-18.011,0-26.925,0H0.211l0,0
			c0.184-0.094,0.275-0.187,0.459-0.279c4.135-2.698,8.179-5.396,12.405-8C13.351,4.279,13.627,4.094,13.902,3.906L13.902,3.906z"/>
		<path id="XMLID_5608_" fill="#4D4D4E" d="M0.211,13.488c1.103,0,2.297,0,3.4,0c0,0,0,0,0.092,0c0,1.209,0,2.418,0,3.628
			c1.103,0,2.114,0,3.216,0c0-1.21,0-2.419,0-3.628c1.195,0,2.297,0,3.399,0c0,3.441,0,6.884,0,10.326c-1.102,0-2.297,0-3.399,0
			c0-1.21,0-2.512,0-3.722c-1.103,0-2.114,0-3.216,0c0,1.21,0,2.512,0,3.722c-1.194,0-2.297,0-3.492,0
			C0.211,20.465,0.211,17.023,0.211,13.488z"/>
		<path id="XMLID_5605_" fill="#4D4D4E" d="M30.534,28.094c-0.091,0-0.275,0-0.367-0.094c-0.827-0.186-1.286-0.93-1.286-1.674
			c0-0.838,0.552-1.488,1.378-1.675c0.92-0.187,1.745,0.278,2.021,1.116c0.369,1.116-0.366,2.232-1.47,2.326h-0.092
			C30.719,28.094,30.627,28.094,30.534,28.094z M31.638,26.326c0-0.652-0.459-1.023-1.011-1.023s-1.012,0.465-1.012,1.023
			c0,0.558,0.46,1.022,1.012,1.022S31.638,26.884,31.638,26.326z"/>
		<path id="XMLID_5604_" fill="#4D4D4E" d="M0.211,27.441c0.184-0.186,0.275-0.371,0.459-0.465c0.184,0.094,0.368,0.186,0.46,0.279
			c0.184,0.093,0.459,0.093,0.735,0.093c0.184,0,0.276-0.093,0.276-0.278c0-0.187,0-0.279-0.184-0.279
			c-0.184-0.094-0.368-0.094-0.643-0.187c-0.092,0-0.276-0.093-0.368-0.093c-0.367-0.186-0.551-0.372-0.551-0.744
			c0-0.465,0.092-0.744,0.551-0.93c0.459-0.187,0.827-0.187,1.287-0.094c0.184,0.094,0.368,0.186,0.644,0.279
			c-0.185,0.186-0.276,0.372-0.368,0.559c-0.276-0.094-0.459-0.187-0.644-0.279c-0.092,0-0.276,0-0.367,0
			c-0.092,0-0.184,0.093-0.184,0.279c0,0.092,0.092,0.186,0.184,0.278c0.184,0.093,0.367,0.093,0.551,0.187
			c0.184,0.093,0.275,0.093,0.459,0.186c0.459,0.186,0.643,0.465,0.551,0.838c0,0.465-0.275,0.744-0.643,0.93
			c-0.643,0.186-1.286,0.094-1.837-0.279C0.303,27.628,0.303,27.535,0.211,27.441C0.211,27.535,0.211,27.535,0.211,27.441z"/>
		<path id="XMLID_5603_" fill="#4D4D4E" d="M27.504,16.465c0,2.512,0,5.023,0,7.441c-1.197,0-2.299,0-3.492,0
			c0-2.511,0-5.022,0-7.441c-0.921,0-1.839,0-2.758,0c0-1.023,0-1.953,0-2.977c0.091,0,0.091,0,0.184,0c3.399,0,6.801,0,10.291,0
			c0.093,0,0.186,0,0.186,0.186c0.642,1.861,1.285,3.722,1.929,5.582c0,0,0,0.093,0.093,0.186c0.091-0.186,0.091-0.371,0.184-0.465
			c0.552-1.768,1.194-3.441,1.746-5.209c0-0.094,0.091-0.094,0.183-0.094c1.195,0,2.299,0,3.492,0c0,0,0.092,0,0.184,0
			c0,0.094,0,0.094-0.092,0.187c-1.378,3.349-2.756,6.698-4.042,10.046C35.59,24,35.496,24,35.406,24c-1.012,0-2.022,0-3.033,0
			c-0.093,0-0.184,0-0.184-0.094c-1.011-2.418-1.931-4.836-2.942-7.162c0-0.093-0.09-0.093-0.184-0.093c-0.458,0-0.918,0-1.377,0
			C27.594,16.465,27.594,16.465,27.504,16.465z"/>
		<path id="XMLID_5602_" fill="#4D4D4E" d="M18.129,20.186c-0.551,0-1.194,0-1.746,0c0-0.837,0-1.581,0-2.418
			c1.654,0,3.308,0,4.961,0c0,0.093,0,0.093,0,0.186c0,1.488,0,3.07,0,4.559c0,0.093,0,0.186-0.091,0.186
			c-0.919,0.744-2.021,1.117-3.216,1.396c-1.103,0.186-2.114,0.186-3.216-0.094c-0.919-0.279-1.746-0.744-2.481-1.396
			c-0.735-0.744-1.194-1.675-1.378-2.697c-0.184-1.21-0.092-2.419,0.551-3.628c0.735-1.396,1.838-2.326,3.4-2.697
			c2.113-0.559,4.135-0.187,5.881,1.115c0.091,0.094,0.091,0.094,0.184,0.187c0,0,0,0,0.093,0.093
			c-0.646,0.744-1.288,1.582-1.931,2.326c-0.184-0.094-0.368-0.279-0.551-0.373c-0.735-0.371-1.47-0.558-2.297-0.371
			c-0.919,0.186-1.562,0.93-1.654,1.859c-0.091,0.652,0,1.303,0.368,1.861c0.46,0.65,1.011,0.93,1.746,1.023
			c0.459,0,0.827,0,1.287-0.187c0.091-0.093,0.184-0.093,0.184-0.278C18.129,20.559,18.129,20.372,18.129,20.186z"/>
		<path id="XMLID_5601_" fill="#4D4D4E" d="M34.486,27.256c-0.277-0.465-0.644-0.93-0.919-1.396l0,0c0,0.651,0,1.396,0,2.14
			c-0.276,0-0.46,0-0.735,0c0-1.116,0-2.232,0-3.349c0.275,0,0.459,0,0.735,0l0.092,0.093c0.274,0.372,0.46,0.744,0.735,1.209
			l0.092,0.094c0.092-0.187,0.275-0.373,0.368-0.651c0.184-0.279,0.275-0.466,0.459-0.744l0.093-0.093c0.273,0,0.459,0,0.735,0
			c0,1.115,0,2.232,0,3.348c-0.276,0-0.462,0-0.735,0c0-0.744,0-1.395,0-2.139l0,0C35.13,26.326,34.762,26.791,34.486,27.256z"/>
		<path id="XMLID_5598_" fill="#4D4D4E" d="M9.4,24.651C9.4,24.651,9.492,24.651,9.4,24.651c0.644,0,1.194,0,1.746,0
			c0.551,0,0.919,0.372,1.011,0.837c0.092,0.559-0.092,1.023-0.643,1.303c0,0,0,0-0.092,0c0.092,0.186,0.276,0.371,0.368,0.558
			c0.092,0.187,0.276,0.372,0.368,0.558c-0.184,0-0.275,0-0.368,0c-0.368,0.094-0.551-0.092-0.735-0.371
			c-0.092-0.187-0.275-0.373-0.368-0.559c0,0-0.092-0.093-0.184-0.093c-0.184,0-0.276,0-0.459,0c0,0.372,0,0.744,0,1.022
			c-0.276,0-0.459,0-0.735,0C9.4,26.884,9.4,25.768,9.4,24.651z M10.227,26.232c0.276,0,0.552,0,0.827,0
			c0.276,0,0.459-0.186,0.459-0.465s-0.092-0.465-0.368-0.465c-0.276,0-0.643,0-0.919-0.094
			C10.227,25.674,10.227,25.953,10.227,26.232z"/>
		<path id="XMLID_5597_" fill="#4D4D4E" d="M28.422,28c-0.276,0-0.46,0-0.735,0c0-0.465,0-0.838,0-1.303c-0.459,0-0.918,0-1.287,0
			c0,0.465,0,0.838,0,1.303c-0.276,0-0.459,0-0.734,0c0-1.116,0-2.232,0-3.349c0.275,0,0.458,0,0.734,0c0,0.465,0,0.837,0,1.302
			c0.459,0,0.919,0,1.287,0c0-0.465,0-0.837,0-1.302c0.275,0,0.459,0,0.735,0C28.422,25.768,28.422,26.884,28.422,28z"/>
		<path id="XMLID_5596_" fill="#4D4D4E" d="M39.172,25.303c-0.55,0-1.193,0-1.746,0c0,0.186,0,0.465,0,0.65c0.553,0,1.011,0,1.563,0
			c0,0.187,0,0.465,0,0.651c-0.552,0-1.01,0-1.563,0c0,0.279,0,0.466,0,0.744c0.553,0,1.196,0,1.746,0c0,0.187,0,0.466,0,0.651
			c-0.825,0-1.653,0-2.48,0c0-1.116,0-2.232,0-3.349c0.827,0,1.655,0,2.48,0C39.172,24.838,39.172,25.023,39.172,25.303z"/>
		<path id="XMLID_5593_" fill="#4D4D4E" d="M8.94,28c-0.275,0-0.459,0-0.735,0l-0.091-0.094c-0.092-0.186-0.184-0.371-0.276-0.558
			l-0.092-0.093c-0.368,0-0.827,0-1.195,0c-0.092,0-0.092,0-0.092,0.093c-0.092,0.187-0.184,0.372-0.184,0.558
			C6.275,28,6.184,28,6.092,28c-0.185,0-0.368,0-0.644,0c0.092-0.279,0.184-0.559,0.368-0.744c0.367-0.838,0.735-1.674,1.011-2.512
			c0-0.093,0.092-0.093,0.184-0.093c0.184,0,0.275,0,0.459,0c0,0,0.092,0,0.092,0.093C8.114,25.768,8.481,26.884,8.94,28
			C8.94,27.906,8.94,28,8.94,28z M7.654,26.604c-0.184-0.372-0.275-0.651-0.459-1.022c-0.184,0.371-0.276,0.744-0.459,1.022
			C7.103,26.604,7.378,26.604,7.654,26.604z"/>
		<path id="XMLID_5590_" fill="#4D4D4E" d="M20.794,28c-0.276,0-0.459,0-0.735,0c0,0-0.092,0-0.092-0.094
			c-0.092-0.186-0.184-0.371-0.184-0.558c0-0.093-0.092-0.093-0.184-0.093c-0.367,0-0.827,0-1.195,0c-0.091,0-0.091,0-0.184,0.093
			c-0.092,0.187-0.184,0.372-0.184,0.558C18.038,28,17.945,28,17.854,28c-0.184,0-0.367,0-0.644,0
			c0.092-0.186,0.184-0.465,0.276-0.651c0.367-0.837,0.735-1.675,1.103-2.604c0-0.093,0.092-0.186,0.184-0.186s0.276,0,0.368,0
			s0.092,0,0.184,0.093c0.46,1.022,0.827,2.046,1.287,2.977C20.702,27.814,20.794,27.906,20.794,28z M19.048,25.488
			c-0.184,0.372-0.276,0.744-0.459,1.023c0.276,0,0.551,0,0.827,0C19.324,26.232,19.232,25.86,19.048,25.488z"/>
		<path id="XMLID_5589_" fill="#4D4D4E" d="M4.07,25.303c-0.368,0-0.643,0-1.011,0c0-0.187,0-0.465,0-0.651c0.919,0,1.838,0,2.757,0
			c0,0.187,0,0.465,0,0.651c-0.368,0-0.644,0-1.011,0c0,0.93,0,1.768,0,2.697c-0.275,0-0.459,0-0.735,0
			C4.07,27.07,4.07,26.232,4.07,25.303z"/>
		<path id="XMLID_5588_" fill="#4D4D4E" d="M13.627,25.303c-0.368,0-0.644,0-1.011,0c0-0.187,0-0.465,0-0.651
			c0.919,0,1.838,0,2.757,0c0,0.187,0,0.465,0,0.651c-0.368,0-0.643,0-1.011,0c0,0.93,0,1.768,0,2.697c-0.276,0-0.459,0-0.735,0
			C13.627,27.07,13.627,26.232,13.627,25.303z"/>
		<path id="XMLID_5587_" fill="#4D4D4E" d="M23.091,24.651c0,0.187,0,0.465,0,0.651c-0.366,0-0.643,0-1.012,0
			c0,0.93,0,1.768,0,2.697c-0.273,0-0.458,0-0.734,0c0-0.838,0-1.768,0-2.697c-0.367,0-0.643,0-1.01,0c0-0.279,0-0.465,0-0.651
			C21.345,24.651,22.265,24.651,23.091,24.651z"/>
	</g>
</g>
</svg>
