<?xml version="1.0" encoding="utf-8"?>
<!-- Generator: Adobe Illustrator 19.0.0, SVG Export Plug-In . SVG Version: 6.00 Build 0)  -->
<svg version="1.1" id="Layer_1" xmlns="http://www.w3.org/2000/svg" xmlns:xlink="http://www.w3.org/1999/xlink" x="0px" y="0px"
	 viewBox="-458 265 42.7 31" style="enable-background:new -458 265 42.7 31;" xml:space="preserve">
<style type="text/css">
	.st0{fill:#4D4D4E;}
</style>
<g id="iLHGvc.tif_1_">
	<g id="XMLID_5535_">
		<path id="XMLID_5548_" class="st0" d="M-453.7,296.2c-0.2-0.1-0.5-0.1-0.7-0.1c-0.8-0.1-1.6-0.3-2.4-0.8c-0.7-0.5-1.1-1.2-1.2-2
			c-0.1-0.7,0-1.3,0.3-1.9c0.4-0.8,1-1.3,1.8-1.7c0.8-0.4,1.6-0.6,2.5-0.7c0.9-0.1,1.9-0.1,2.8,0c0.8,0.1,1.6,0.3,2.4,0.8
			c0.5,0.3,0.8,0.7,0.9,1.3c0,0.2,0,0.2-0.2,0.2c-1,0-1.9,0-2.9,0c-0.1,0-0.2,0-0.2-0.1c-0.1-0.4-0.4-0.7-0.8-0.8
			c-0.6-0.2-1.2-0.2-1.8,0c-0.9,0.3-1.3,0.9-1.5,1.7c-0.1,0.4,0,0.8,0,1.2c0.1,0.6,0.5,1,1.1,1.2c0.7,0.2,1.3,0.3,2,0.1
			c0.2-0.1,0.5-0.2,0.7-0.4c0.1-0.1,0.3-0.3,0.3-0.5c0-0.1,0-0.1,0.1-0.1c1,0,2,0,3,0c0.1,0,0.1,0,0.1,0.1c-0.1,0.5-0.3,0.9-0.7,1.2
			c-0.5,0.4-1,0.6-1.6,0.8c-0.6,0.2-1.3,0.3-2,0.4c0,0-0.1,0-0.1,0C-452.3,296.2-453,296.2-453.7,296.2z"/>
		<path id="XMLID_5547_" class="st0" d="M-421.5,296.2c-0.3-0.1-0.5-0.1-0.8-0.1c-0.6-0.1-1.2-0.2-1.7-0.4c-1.1-0.4-1.8-1.2-1.9-2.4
			c-0.1-1.3,0.2-2.3,1.3-3.1c0.4-0.3,0.9-0.6,1.5-0.7c1.2-0.4,2.4-0.5,3.6-0.4c0.8,0,1.5,0.1,2.3,0.4c0.3,0.1,0.6,0.2,0.9,0.4
			c0.5,0.3,0.8,0.6,1.1,1.1c0,0.2,0,0.4,0,0.5c-0.1,0-0.1,0-0.2,0c-0.9,0-1.9,0-2.8,0c-0.1,0-0.1,0-0.2-0.1
			c-0.1-0.5-0.4-0.7-0.9-0.8c-0.5-0.1-1-0.2-1.5-0.1c-0.8,0.1-1.4,0.6-1.7,1.4c-0.2,0.5-0.2,1-0.1,1.5c0.1,0.7,0.6,1.1,1.2,1.3
			c0.4,0.1,0.7,0.2,1.1,0.2c0.5,0,1-0.2,1.4-0.5c0.1-0.1,0.3-0.3,0.3-0.5c0-0.1,0.1-0.1,0.2-0.1c1,0,1.9,0,2.9,0c0,0,0.1,0,0.1,0
			c0,0.1,0,0.1,0,0.2c-0.2,0.7-0.6,1.1-1.2,1.4c-0.8,0.4-1.6,0.6-2.4,0.8c-0.2,0-0.5,0-0.7,0.1
			C-420.3,296.2-420.9,296.2-421.5,296.2z"/>
		<path id="XMLID_5546_" class="st0" d="M-439.5,284.9c-0.2-0.4-0.3-0.8-0.5-1.2c-1.7-4.2-3.5-8.4-5.2-12.6
			c-0.7-1.6-0.5-3.2,0.5-4.5c1.9-2.4,5.5-2.3,7.2,0.6c0.6,1,0.6,2,0.5,3.1c-0.3,1.7-0.6,3.5-0.9,5.2c-0.3,1.7-0.5,3.3-0.8,5
			C-439,281.9-439.2,283.3-439.5,284.9C-439.5,284.8-439.5,284.8-439.5,284.9C-439.5,284.9-439.5,284.9-439.5,284.9z"/>
		<path id="XMLID_5545_" class="st0" d="M-434.1,286.4c0.2-0.4,0.3-0.8,0.5-1.2c1.8-4.2,3.5-8.4,5.3-12.5c0.5-1.2,1.5-2,2.9-2.4
			c1.7-0.5,3.4,0.2,4.5,1.6c1.1,1.4,1.1,3.6,0.3,4.9c-0.4,0.7-1,1.3-1.7,1.7c-3.9,2.6-7.8,5.2-11.7,7.8
			C-434,286.3-434.1,286.4-434.1,286.4C-434.1,286.4-434.1,286.4-434.1,286.4z"/>
		<path id="XMLID_5544_" class="st0" d="M-439.5,286.5c-0.8-0.5-1.5-1-2.3-1.6c-3.3-2.3-6.6-4.5-10-6.8c-0.8-0.6-1.4-1.4-1.6-2.4
			c-0.6-2.4,0.8-4.3,2.3-5.1c1.5-0.8,3.5-0.5,4.7,0.7c0.5,0.5,0.9,1.1,1.2,1.7c1.8,4.4,3.7,8.9,5.5,13.3
			C-439.5,286.3-439.5,286.4-439.5,286.5z"/>
		<path id="XMLID_5543_" class="st0" d="M-438.3,287.9c-0.1,0-0.1,0-0.2,0c-4.8,0-9.6,0-14.4,0c-0.9,0-1.8-0.3-2.5-0.9
			c-0.9-0.7-1.4-1.6-1.6-2.7c-0.4-2.8,1.4-4.8,3.7-5.2c1.1-0.2,2.2,0.1,3.1,0.8c3.9,2.6,7.9,5.3,11.8,7.9
			C-438.4,287.8-438.3,287.8-438.3,287.9z"/>
		<path id="XMLID_5542_" class="st0" d="M-435.3,287.9c1.2-0.8,2.3-1.5,3.4-2.3c2.8-1.9,5.6-3.8,8.5-5.7c0.8-0.5,1.7-0.9,2.7-0.8
			c1.1,0,2.1,0.5,2.9,1.3c0.9,0.8,1.2,1.9,1.3,3c0.1,1.5-0.5,2.7-1.6,3.6c-0.7,0.6-1.6,0.9-2.5,0.9c-4.8,0-9.6,0-14.4,0
			C-435.2,287.9-435.2,287.9-435.3,287.9z"/>
		<path id="XMLID_5541_" class="st0" d="M-434.1,284.8c-0.2-1-0.4-2.1-0.5-3.1c-0.2-1.1-0.3-2.2-0.5-3.3c-0.2-1.3-0.4-2.5-0.6-3.8
			c-0.1-0.9-0.3-1.8-0.4-2.6c-0.1-0.7,0.2-1.3,0.8-1.7c0.2-0.1,0.5-0.3,0.7-0.4c0.1-0.1,0.1-0.1,0-0.2c-0.1-0.1-0.2-0.1-0.3-0.1
			c-0.5,0-0.9,0-1.4,0c-0.1,0-0.1,0-0.1-0.1c-0.1-2,1.1-3.6,2.7-4.3c2.2-0.9,4.5,0.1,5.5,2.3c0.5,1.2,0.5,2.4,0,3.6
			c-0.8,2-1.7,4-2.5,6c-1.1,2.6-2.2,5.1-3.3,7.7C-434,284.7-434,284.8-434.1,284.8z"/>
		<path id="XMLID_5540_" class="st0" d="M-439,294.1c0-1.6,0-3.2,0-4.8c0-0.2,0-0.2,0.2-0.2c0.8,0,1.5,0,2.3,0c0.1,0,0.2,0,0.2,0.2
			c0,2.2,0,4.4,0,6.6c0,0.1,0,0.2-0.2,0.2c-1.2,0-2.5,0-3.7,0c-0.1,0-0.2,0-0.2-0.1c-1.2-1.6-2.3-3.1-3.5-4.7c0-0.1-0.1-0.1-0.2-0.2
			c0,0.1,0,0.1,0,0.2c0,1.5,0,3.1,0,4.6c0,0.1,0,0.2-0.2,0.2c-0.8,0-1.6,0-2.3,0c-0.1,0-0.2,0-0.2-0.1c0-2.2,0-4.4,0-6.6
			c0-0.1,0-0.1,0.1-0.1c1.3,0,2.6,0,3.9,0c0.1,0,0.2,0.1,0.2,0.1c1.1,1.6,2.2,3.1,3.3,4.7C-439.1,294-439.1,294-439,294.1z"/>
		<path id="XMLID_5536_" class="st0" d="M-428.5,292.4c0.5,0.1,1,0.2,1.5,0.5c0.4,0.3,0.6,0.7,0.7,1.2c0,0.6-0.3,1-0.7,1.3
			c-0.5,0.3-1,0.4-1.6,0.5c-0.6,0.1-1.3,0.1-1.9,0.1c-1.6,0-3.2,0-4.8,0c-0.1,0-0.2,0-0.2-0.2c0-2.2,0-4.4,0-6.6
			c0-0.1,0-0.2,0.1-0.2c1.8,0,3.5,0,5.3,0c0.9,0,1.7,0.1,2.5,0.5c0.2,0.1,0.5,0.3,0.7,0.4c0.4,0.4,0.4,0.9,0.1,1.4
			c-0.3,0.5-0.8,0.7-1.3,0.8C-428.2,292.3-428.3,292.3-428.5,292.4z M-431.6,293.1c-0.3,0-0.6,0-0.8,0c-0.1,0-0.1,0-0.1,0.1
			c0,0.4,0,0.8,0,1.2c0,0.1,0,0.1,0.1,0.1c0.5,0,1,0,1.5,0c0.3,0,0.7,0,1-0.2c0.2-0.1,0.4-0.2,0.4-0.5c0-0.2-0.1-0.4-0.3-0.5
			c-0.1-0.1-0.2-0.1-0.4-0.1C-430.8,293.1-431.2,293.1-431.6,293.1z M-431.7,291.8L-431.7,291.8c0.1,0,0.2,0,0.4,0
			c0.4,0,0.8,0,1.2-0.1c0.2-0.1,0.4-0.2,0.4-0.4c0-0.3-0.1-0.5-0.3-0.6c-0.1-0.1-0.3-0.1-0.4-0.1c-0.6-0.1-1.3-0.1-1.9-0.1
			c-0.1,0-0.1,0.1-0.1,0.1c0,0.4,0,0.8,0,1.2c0,0.1,0,0.1,0.1,0.1C-432.2,291.8-432,291.8-431.7,291.8z"/>
	</g>
</g>
</svg>
