<?xml version="1.0" encoding="utf-8"?>
<!-- Generator: Adobe Illustrator 16.0.0, SVG Export Plug-In . SVG Version: 6.00 Build 0)  -->
<!DOCTYPE svg PUBLIC "-//W3C//DTD SVG 1.1//EN" "http://www.w3.org/Graphics/SVG/1.1/DTD/svg11.dtd">
<svg version="1.1" id="Layer_1" xmlns="http://www.w3.org/2000/svg" xmlns:xlink="http://www.w3.org/1999/xlink" x="0px" y="0px"
	 width="40px" height="30px" viewBox="0 0 40 30" enable-background="new 0 0 40 30" xml:space="preserve">
<g id="_x39_YQATy.tif_1_">
	<g id="XMLID_5567_">
		<path id="XMLID_5578_" fill="#4D4D4E" d="M18.559,0.576c-1.531,0-2.845,0-4.268,0c-0.11,0-0.329,0.113-0.329,0.227
			c-0.218,0.454-0.437,0.906-0.657,1.361c-1.97,4.082-3.721,8.052-5.69,12.247c-2.299,4.763-4.378,9.525-6.677,14.4
			c0,0.114-0.109,0.228-0.219,0.342c0,0,0,0-0.109,0c3.174-9.412,6.348-18.938,9.521-28.35c-0.109,0-0.109,0-0.218,0
			c-1.204,0-2.409,0-3.503,0c-0.219,0-0.328,0.113-0.328,0.34C5.536,3.751,4.989,6.472,4.441,9.08
			c-0.657,2.949-1.204,5.897-1.861,8.846c-0.656,3.287-1.422,6.804-2.079,10.092c-0.11,0.567-0.219,1.134-0.328,1.701l0.109,0.114
			c0.109-0.114,0.328-0.228,0.438-0.454c1.642-2.494,3.064-5.103,4.707-7.483c0.438-0.683,0.657-1.361,0.546-2.155
			c0-0.454,0-1.021,0-1.588c0.438,0,0.875,0,1.314,0c0.329,0,0.547-0.114,0.656-0.34c1.642-2.722,3.284-5.444,5.035-8.166
			c0.438-0.681,0.657-1.474,0.657-2.268c0-0.568,0-1.134,0-1.701c0.547,0,0.985,0,1.422,0c0.329,0,0.439-0.114,0.657-0.34
			c0.547-0.909,1.094-1.815,1.642-2.608C17.793,1.822,18.231,1.256,18.559,0.576z M27.315,22.576L27.315,22.576
			c0.437,1.813,0.873,3.514,1.203,5.329c0.765,0,1.422,0,2.188,0c0.765-3.176,1.532-6.465,2.299-9.753c-0.657,0-1.205,0-1.752,0
			c-0.109,0-0.22,0.113-0.22,0.228c-0.327,1.36-0.545,2.494-0.874,3.854c-0.109,0.455-0.22,0.908-0.331,1.36h-0.106
			c-0.11-0.68-0.33-1.36-0.439-2.041c-0.218-1.02-0.437-2.153-0.654-3.062c0-0.112-0.11-0.34-0.22-0.34c-0.657,0-1.204,0-1.863,0
			c-0.326,1.929-0.764,3.63-1.093,5.556c-0.108-0.113-0.108-0.113-0.108-0.226c-0.329-1.7-0.657-3.288-0.985-4.99
			c0-0.112-0.11-0.34-0.22-0.34c-0.765,0-1.532,0-2.297,0c0.327,1.36,0.655,2.608,0.875,3.969c0.438,1.928,0.876,3.63,1.204,5.558
			c0,0.227,0.109,0.339,0.327,0.339c0.549,0,1.095,0,1.533,0c0.328,0,0.328-0.112,0.438-0.339c0.326-1.477,0.548-2.835,0.875-4.31
			C27.205,23.028,27.205,22.801,27.315,22.576z M9.147,22.462C9.257,22.462,9.257,22.462,9.147,22.462
			c0.219,0.114,0.219,0.228,0.329,0.339c0.986,1.589,1.86,3.176,2.736,4.878c0.11,0.227,0.329,0.339,0.547,0.339
			c0.547,0,0.986,0,1.533,0c0.328,0,0.437-0.112,0.437-0.453c0-2.835,0-5.897,0-8.732c0-0.113,0-0.34,0-0.452
			c-0.766,0-1.532,0-2.407,0c0,1.587,0,3.061,0,4.648c-0.219-0.113-0.219-0.228-0.329-0.339c-0.657-1.249-1.423-2.383-2.079-3.517
			c-0.329-0.681-0.767-0.907-1.423-0.793c-0.548,0.112-1.204,0-1.861,0c0,3.174,0,6.463,0,9.638c0.766,0,1.422,0,2.189,0
			c0.109,0,0.219-0.227,0.219-0.339c0-0.455,0-1.022,0-1.477C9.147,24.957,9.147,23.708,9.147,22.462z M38.914,5.905
			C38.806,5.905,38.806,5.905,38.914,5.905c-0.875,0-1.642,0.113-2.405,0c-0.658-0.113-1.097,0.227-1.425,0.793
			c-0.217,0.454-0.547,0.908-0.765,1.475c-0.329-0.453-0.55-0.908-0.768-1.248c-0.328-0.793-0.875-1.133-1.642-1.02
			c-0.766,0.113-1.421,0-2.188,0c0.106,0.113,0.106,0.227,0.106,0.227c0.878,1.588,1.752,3.061,2.63,4.536
			c0.109,0.227,0.109,0.453,0,0.68c-0.658,1.135-1.314,2.269-1.861,3.289c-0.328,0.567-0.657,1.135-0.985,1.813
			c0.11,0,0.11,0.114,0.11,0.114c0.657,0,1.312-0.114,1.969,0c0.877,0.113,1.423-0.228,1.86-1.02
			c0.218-0.567,0.548-1.021,0.877-1.588c0.108,0.114,0.218,0.227,0.218,0.339c0.328,0.682,0.766,1.249,1.096,1.929
			c0.218,0.34,0.328,0.453,0.767,0.453c0.655,0,1.312,0,1.968,0c0.329,0,0.547,0,0.878,0c-0.111-0.113-0.111-0.228-0.111-0.341
			c-0.984-1.7-1.86-3.174-2.735-4.875c-0.111-0.227-0.111-0.453,0-0.68c0.327-0.68,0.765-1.248,1.095-1.929
			C37.931,7.72,38.477,6.925,38.914,5.905z M17.247,12.937c0.219,0,0.328,0,0.438,0c0.765,0,1.532,0,2.298,0
			c0.108,0,0.328-0.114,0.328-0.227c0-0.908,0-1.815,0-2.609c-0.985,0-1.969,0-2.955,0c0-0.34,0-0.794,0-1.134
			c0-0.339,0.109-0.339,0.329-0.339c0.984,0,1.86,0,2.735,0c0.109,0,0.329,0,0.438,0c-0.109-1.021-0.109-1.929-0.219-2.722
			c-2.189,0-4.268,0-6.347,0c0,3.515,0,7.144,0,10.545c0.985,0,1.969,0,2.955,0c0-0.566,0-1.132,0-1.7
			C17.247,14.183,17.247,13.616,17.247,12.937z M32.349,25.184c0.22,1.133,0.766,1.927,1.642,2.495
			c0.984,0.566,1.97,0.679,2.845,0.453c1.532-0.227,2.626-1.588,2.626-2.835c0.111-1.702-0.655-2.607-2.297-3.176
			c-0.548-0.226-1.094-0.339-1.643-0.454c-0.327-0.113-0.547-0.34-0.547-0.679c0.109-0.342,0.329-0.568,0.658-0.682
			c0.655-0.112,1.093,0.113,1.421,0.682c0,0.111,0.219,0.225,0.219,0.225c0.658-0.225,1.204-0.452,1.971-0.679
			c-0.329-0.908-0.767-1.589-1.53-2.042c-1.097-0.566-2.301-0.566-3.394,0c-1.205,0.566-1.86,1.589-1.86,2.835
			c0,1.249,0.765,2.155,1.97,2.494c0.655,0.228,1.313,0.455,1.859,0.568c0.438,0.112,0.547,0.34,0.547,0.794
			c0,0.453-0.326,0.567-0.656,0.567c-0.767,0.112-1.423-0.228-1.75-1.021c0-0.114-0.22-0.228-0.329-0.228
			C33.77,24.843,33.114,24.957,32.349,25.184z M21.296,20.534c0-0.794,0-1.589,0-2.269c-2.08,0-3.94,0-6.019,0
			c0,0.114,0,0.227,0,0.34c0,2.948,0,6.01,0,9.073c0,0.339,0.109,0.339,0.327,0.339c1.861,0,3.721,0,5.582,0c0.11,0,0.11,0,0.218,0
			c0-0.68,0-1.247,0-1.928c0-0.227-0.107-0.339-0.327-0.339c-0.985,0-2.079,0-2.955,0c-0.11,0-0.329,0-0.438,0
			c0-0.567,0-1.136,0-1.702c0.984,0,2.08,0,2.954,0c0-0.68,0-1.473,0-2.153c-1.094,0-2.079,0-2.954,0c0-0.455,0-0.907,0-1.476
			C18.888,20.534,20.091,20.534,21.296,20.534z"/>
		<path id="XMLID_5577_" fill="#4D4D4E" d="M18.559,0.576c-0.438,0.68-0.766,1.247-1.094,1.814
			c-0.548,0.908-1.094,1.814-1.642,2.608c-0.109,0.228-0.328,0.341-0.657,0.341c-0.438,0-0.875,0-1.421,0c0,0.566,0,1.133,0,1.7
			c0.109,0.908-0.219,1.588-0.658,2.268c-1.751,2.608-3.283,5.443-5.034,8.165c-0.11,0.228-0.329,0.454-0.657,0.341
			c-0.438,0-0.766,0-1.313,0c0,0.567,0,1.02,0,1.588c0.109,0.794-0.11,1.474-0.548,2.153c-1.641,2.495-3.064,5.103-4.706,7.484
			c-0.11,0.228-0.329,0.341-0.438,0.454l-0.109-0.113c0.109-0.568,0.219-1.134,0.328-1.7c0.657-3.289,1.422-6.805,2.08-10.092
			c0.657-2.95,1.204-5.898,1.86-8.847c0.547-2.607,1.095-5.33,1.642-7.938c0-0.227,0.109-0.34,0.329-0.34c1.203,0,2.407,0,3.502,0
			c0,0,0.109,0,0.218,0C7.069,9.988,3.895,19.4,0.72,28.811c0,0,0,0,0.11,0c0.109-0.112,0.109-0.226,0.219-0.339
			c2.298-4.764,4.377-9.526,6.675-14.402c1.97-4.082,3.721-8.051,5.691-12.248c0.219-0.453,0.438-0.907,0.657-1.36
			c0.109-0.113,0.219-0.228,0.329-0.228C15.604,0.576,17.028,0.576,18.559,0.576z"/>
		<path id="XMLID_5574_" fill="#4D4D4E" d="M31.254,11.235c0,2.948-2.407,5.33-5.253,5.33c-2.845,0-5.253-2.381-5.253-5.33
			c0-2.835,2.408-5.33,5.143-5.33C28.955,5.905,31.145,8.173,31.254,11.235z M26.877,11.121L26.877,11.121c0-0.793,0-1.474,0-2.268
			c0-0.566-0.438-1.02-0.986-1.02c-0.546,0-0.875,0.453-0.875,1.02c0,1.475,0,2.948,0,4.423c0,0.566,0.438,1.019,0.985,1.019
			c0.545,0,0.986-0.453,0.986-1.019C26.877,12.596,26.877,11.915,26.877,11.121z"/>
		<path id="XMLID_5573_" fill="#4D4D4E" d="M27.315,22.576c0,0.225-0.11,0.452-0.11,0.679c-0.328,1.475-0.548,2.835-0.877,4.31
			c0,0.227-0.108,0.341-0.438,0.341c-0.546,0-1.093,0-1.531,0c-0.22,0-0.328-0.114-0.328-0.341
			c-0.438-1.928-0.875-3.629-1.205-5.558c-0.328-1.36-0.546-2.494-0.876-3.969c0.768,0,1.535,0,2.299,0
			c0.11,0,0.219,0.228,0.219,0.342c0.33,1.701,0.659,3.287,0.985,4.989c0,0.113,0,0.113,0.111,0.226
			c0.326-1.813,0.764-3.628,1.093-5.557c0.658,0,1.205,0,1.861,0c0.11,0,0.218,0.228,0.218,0.342
			c0.219,1.021,0.438,2.154,0.656,3.061c0.111,0.681,0.33,1.36,0.437,2.042h0.112c0.109-0.454,0.219-0.906,0.328-1.361
			c0.22-1.36,0.548-2.495,0.875-3.855c0-0.113,0.109-0.228,0.219-0.228c0.547,0,1.205,0,1.751,0
			c-0.765,3.175-1.533,6.577-2.297,9.753c-0.767,0-1.425,0-2.188,0C28.081,26.202,27.752,24.39,27.315,22.576L27.315,22.576z"/>
		<path id="XMLID_5572_" fill="#4D4D4E" d="M9.147,22.462c0,1.246,0,2.495,0,3.628c0,0.454,0,1.021,0,1.475
			c0,0.114-0.109,0.341-0.218,0.341c-0.766,0-1.423,0-2.189,0c0-3.176,0-6.352,0-9.64c0.656,0,1.203,0,1.86,0
			c0.658-0.113,1.094,0.114,1.424,0.793c0.657,1.248,1.422,2.382,2.079,3.518c0.109,0.113,0.109,0.225,0.328,0.339
			c0-1.588,0-3.063,0-4.649c0.766,0,1.532,0,2.408,0c0,0.227,0,0.34,0,0.453c0,2.835,0,5.896,0,8.733
			c0,0.339-0.11,0.453-0.438,0.453c-0.547,0-0.985,0-1.532,0c-0.329,0-0.438-0.114-0.547-0.341c-0.985-1.701-1.86-3.175-2.736-4.875
			C9.476,22.689,9.366,22.576,9.147,22.462C9.257,22.462,9.257,22.462,9.147,22.462z"/>
		<path id="XMLID_5571_" fill="#4D4D4E" d="M38.914,5.905c-0.547,1.02-1.094,1.928-1.642,2.834c-0.327,0.68-0.764,1.248-1.094,1.928
			c-0.108,0.227-0.108,0.453,0,0.68c0.985,1.702,1.971,3.176,2.735,4.877c0,0.112,0.109,0.226,0.109,0.34c-0.328,0-0.656,0-0.874,0
			c-0.656,0-1.314,0-1.971,0c-0.328,0-0.546-0.114-0.767-0.454c-0.328-0.679-0.766-1.247-1.093-1.927
			c-0.11-0.113-0.11-0.227-0.219-0.34c-0.331,0.566-0.658,1.021-0.877,1.588c-0.328,0.906-0.874,1.247-1.86,1.019
			c-0.656-0.113-1.313,0-1.971,0c0,0,0,0-0.109-0.113c0.329-0.565,0.657-1.133,0.986-1.813c0.657-1.134,1.312-2.268,1.861-3.289
			c0.108-0.227,0.108-0.453,0-0.68c-0.877-1.588-1.751-3.062-2.627-4.536c0,0-0.111-0.113-0.111-0.227c0.768,0,1.534,0.113,2.188,0
			c0.878-0.113,1.314,0.227,1.643,1.02c0.219,0.454,0.438,0.794,0.767,1.248c0.329-0.567,0.547-1.021,0.767-1.475
			c0.327-0.68,0.655-0.906,1.422-0.793s1.534,0,2.298,0C38.806,5.905,38.806,5.905,38.914,5.905z"/>
		<path id="XMLID_5570_" fill="#4D4D4E" d="M17.247,12.937c0,0.566,0,1.133,0,1.7c0,0.567,0,1.135,0,1.7c-0.986,0-1.97,0-2.955,0
			c0-3.514,0-7.03,0-10.545c2.188,0,4.158,0,6.347,0c0.11,0.906,0.11,1.928,0.219,2.721c-0.219,0-0.328,0-0.438,0
			c-0.984,0-1.86,0-2.735,0c-0.219,0-0.329,0.114-0.329,0.34c0,0.34,0,0.681,0,1.135c0.985,0,1.97,0,2.955,0
			c0,0.907,0,1.813,0,2.607c0,0.114-0.219,0.228-0.328,0.228c-0.766,0-1.533,0-2.298,0C17.574,12.937,17.355,12.937,17.247,12.937z"
			/>
		<path id="XMLID_5569_" fill="#4D4D4E" d="M32.349,25.184c0.766-0.113,1.421-0.341,2.08-0.454c0.108,0,0.218,0.113,0.327,0.228
			c0.438,0.794,0.986,1.133,1.753,1.02c0.326-0.113,0.655-0.226,0.655-0.567c0-0.452-0.11-0.68-0.548-0.794
			c-0.656-0.226-1.313-0.339-1.86-0.566c-1.204-0.454-1.969-1.248-1.969-2.495s0.546-2.381,1.859-2.835
			c1.096-0.566,2.299-0.566,3.393,0c0.768,0.454,1.204,1.134,1.533,2.042c-0.658,0.228-1.313,0.452-1.97,0.68
			c-0.109,0-0.22-0.113-0.22-0.228c-0.329-0.679-0.767-0.793-1.423-0.679c-0.327,0-0.656,0.227-0.656,0.679
			c-0.109,0.454,0.218,0.568,0.547,0.683c0.546,0.226,1.095,0.339,1.643,0.452c1.64,0.567,2.407,1.474,2.298,3.176
			c-0.109,1.474-1.314,2.608-2.627,2.834c-1.094,0.228-2.08,0.114-2.845-0.452C33.114,27.11,32.568,26.202,32.349,25.184z"/>
		<path id="XMLID_5568_" fill="#4D4D4E" d="M21.296,20.534c-1.205,0-2.408,0-3.612,0c0,0.454,0,0.906,0,1.473
			c0.984,0,2.08,0,2.954,0c0,0.683,0,1.476,0,2.155c-0.985,0-2.079,0-2.954,0c0,0.567,0,1.135,0,1.701c0.109,0,0.328,0,0.438,0
			c0.985,0,2.079,0,2.955,0c0.22,0,0.327,0.113,0.327,0.339c0,0.683,0,1.25,0,1.93c-0.107,0-0.218,0-0.218,0
			c-1.86,0-3.721,0-5.582,0c-0.218,0-0.327-0.114-0.327-0.341c0-2.948,0-6.009,0-9.072c0-0.113,0-0.227,0-0.339
			c2.079,0,3.939,0,6.019,0C21.296,18.945,21.296,19.74,21.296,20.534z"/>
	</g>
</g>
</svg>
