<?xml version="1.0" encoding="utf-8"?>
<!-- Generator: Adobe Illustrator 16.0.0, SVG Export Plug-In . SVG Version: 6.00 Build 0)  -->
<!DOCTYPE svg PUBLIC "-//W3C//DTD SVG 1.1//EN" "http://www.w3.org/Graphics/SVG/1.1/DTD/svg11.dtd">
<svg version="1.1" id="Layer_1" xmlns="http://www.w3.org/2000/svg" xmlns:xlink="http://www.w3.org/1999/xlink" x="0px" y="0px"
	 width="40px" height="30px" viewBox="0 0 40 30" enable-background="new 0 0 40 30" xml:space="preserve">
<g id="IKUsge.tif_1_">
	<g id="XMLID_5555_">
		<path id="XMLID_5560_" fill="#4D4D4E" d="M0.138,22.238c0-7.238,0-14.667,0-21.904c0.189,0,0.284,0,0.473,0
			c11.917,0,23.741,0,35.657,0c0.189,0,0.473,0,0.662,0c1.607,0.095,2.555,0.951,2.838,2.476c0,0.095,0.094,0.19,0.094,0.19
			c0,5.523,0,11.143,0,16.572c0,0.094-0.094,0.285-0.094,0.381c-0.283,1.143-1.041,1.809-2.176,2.096
			c-0.377,0.094-0.756,0.094-1.135,0.094c-8.322,0-16.646,0-24.97,0c-0.378,0-0.662,0.096-0.945,0.381
			c-2.175,2.191-4.351,4.381-6.526,6.668c-0.095,0.094-0.284,0.285-0.474,0.475c0-2.57,0-4.951,0-7.428
			C2.408,22.238,1.367,22.238,0.138,22.238z M3.542,3.762c0,0.191,0,0.381,0,0.572c0,2.285,0,4.57,0,6.856c0,2.095,0,4.095,0,6.19
			c0,0.285,0,0.477,0.379,0.477c1.324,0,2.648,0,3.972-0.096c1.135,0,1.986-0.762,2.081-1.713c0.094-1.429,0.094-2.763,0.094-4.191
			c0-0.762-0.567-1.143-1.324-1.334c1.135-0.476,1.324-1.428,1.324-2.381c0-0.666,0-1.428,0-2.095c0-1.144-0.662-2-1.797-2.095
			C6.664,3.667,5.151,3.762,3.542,3.762z M30.5,11.953L30.5,11.953c0,1.238,0,2.477,0,3.713c0,1.334,0.66,2.096,1.891,2.287
			c0.756,0.096,1.512,0.096,2.27,0.096c1.324-0.096,2.08-0.857,2.08-2.096c0.096-2.667,0.096-5.238,0-7.905
			c0-1.048-0.66-1.714-1.703-1.905c-0.756-0.096-1.512-0.19-2.268-0.096C31.066,6.239,30.5,7,30.5,8.715
			C30.5,9.667,30.5,10.81,30.5,11.953z M20.189,17.953c0.567,0,1.229,0,1.797,0c0.473,0,0.568-0.096,0.568-0.572
			c0-1.904,0-3.809,0-5.714c0-1.143,0-2.381,0-3.523s-0.664-1.904-1.799-2c-0.756-0.096-1.607-0.096-2.364,0
			c-1.041,0.096-1.608,0.762-1.797,1.715c-0.095,0.666,0,1.333,0,1.904c0,0.096,0.094,0.285,0.189,0.285c0.662,0,1.324,0,2.081,0
			c0-0.57,0-0.951,0-1.428s0.284-0.477,0.663-0.477c0.378,0,0.567,0.096,0.567,0.477c0,0.477,0,1.047,0,1.523
			c0,0.286-0.095,0.477-0.378,0.572c-0.757,0.285-1.419,0.57-2.175,0.951c-0.663,0.286-1.041,0.763-1.135,1.43
			c-0.094,1.143-0.094,2.381,0,3.523c0,0.666,0.473,1.238,1.04,1.334c0.852,0.189,1.608,0.096,2.271-0.477
			c0.095-0.096,0.189-0.191,0.378-0.381C20.189,17.381,20.189,17.666,20.189,17.953z M23.217,6.048c0,0.286,0,0.476,0.094,0.667
			c0.189,1.428,0.475,2.951,0.662,4.381c0.283,2.095,0.66,4.095,0.945,6.189c0.094,0.381,0.189,0.572,0.566,0.477
			c0.758,0,1.514,0,2.365,0c0.285,0,0.473-0.096,0.473-0.381c0.475-2.952,0.947-6,1.326-8.952c0.094-0.763,0.188-1.524,0.377-2.381
			c-0.756,0-1.42,0-2.08,0c-0.096,0-0.189,0.19-0.189,0.286c-0.189,1.714-0.379,3.428-0.568,5.143
			c-0.094,0.762-0.189,1.619-0.283,2.381h-0.094c-0.283-2.572-0.662-5.143-0.947-7.81C24.824,6.048,24.068,6.048,23.217,6.048z
			 M13.663,7.191c0-0.19-0.094-0.381,0-0.571c0-0.381-0.094-0.572-0.567-0.572c-0.473,0-0.945,0-1.418,0
			c-0.284,0-0.473,0.096-0.473,0.382c0,3.618,0,7.333,0,11.047c0,0.381,0.095,0.477,0.473,0.381c0.473,0,0.946,0,1.513,0
			c0.473,0,0.568-0.191,0.568-0.572c0-2.475,0-4.856,0-7.333c0-0.667,0.095-0.856,0.756-1.048c0.378-0.095,0.756-0.189,1.041-0.189
			c0-0.857,0-1.811,0-2.668C14.798,5.953,14.703,5.953,13.663,7.191z"/>
		<path id="XMLID_5559_" fill="#4D4D4E" d="M6.002,13.572c0-0.476,0-1.048,0-1.523c0-0.286,0.095-0.382,0.378-0.382
			c0.095,0,0.189,0,0.378,0c0.756,0,0.851,0.096,0.851,0.857s0,1.524,0,2.286c0,0.19-0.095,0.667-0.284,0.667
			c-0.378,0.095-0.757,0.095-1.135,0.095c0,0-0.095-0.19-0.095-0.381C6.002,14.715,6.002,14.143,6.002,13.572z"/>
		<path id="XMLID_5558_" fill="#4D4D4E" d="M6.002,7.762c0-0.477,0-0.952,0-1.428c0-0.286,0.095-0.382,0.378-0.382
			c0.189,0,0.378,0,0.567,0c0.378,0,0.473,0.19,0.473,0.571c0,0.857,0,1.619,0,2.477c0,0.381-0.189,0.571-0.567,0.571
			c-0.189,0-0.378,0-0.567,0c-0.284,0-0.378-0.095-0.378-0.381C6.002,8.715,6.002,8.239,6.002,7.762z"/>
		<path id="XMLID_5557_" fill="#4D4D4E" d="M33.053,11.858c0-1.048,0-2.096,0-3.143c0-0.477,0.189-0.667,0.662-0.667
			c0.471,0,0.662,0.19,0.662,0.667c0,2.095,0,4.189,0,6.381c0,0.476-0.283,0.666-0.662,0.666c-0.473,0-0.662-0.19-0.662-0.666
			C33.053,14.048,33.053,13,33.053,11.858z"/>
		<path id="XMLID_5556_" fill="#4D4D4E" d="M20,12.524c0,1.048,0,2,0,2.857c0,0.19-0.379,0.285-0.663,0.38s-0.567-0.096-0.662-0.38
			c0-0.666-0.095-1.238,0-1.904C18.771,12.905,19.432,12.81,20,12.524z"/>
	</g>
</g>
</svg>
