<?xml version="1.0" encoding="utf-8"?>
<!-- Generator: Adobe Illustrator 19.0.0, SVG Export Plug-In . SVG Version: 6.00 Build 0)  -->
<svg version="1.1" id="Layer_1" xmlns="http://www.w3.org/2000/svg" xmlns:xlink="http://www.w3.org/1999/xlink" x="0px" y="0px"
	 viewBox="-458 265 41.3 31" style="enable-background:new -458 265 41.3 31;" xml:space="preserve">
<style type="text/css">
	.st0{fill:#4D4D4E;}
</style>
<g id="IKUsge.tif_1_">
	<g id="XMLID_5555_">
		<path id="XMLID_5560_" class="st0" d="M-458.3,288c0-7.6,0-15.3,0-22.9c0.2,0,0.3,0,0.5,0c12.5,0,25,0,37.5,0c0.2,0,0.5,0,0.7,0
			c1.7,0.1,2.7,1,3,2.6c0,0.1,0.1,0.2,0.1,0.2c0,5.8,0,11.6,0,17.3c0,0.1-0.1,0.3-0.1,0.4c-0.3,1.2-1.1,1.9-2.3,2.2
			c-0.4,0.1-0.8,0.1-1.2,0.1c-8.8,0-17.5,0-26.3,0c-0.4,0-0.7,0.1-1,0.4c-2.3,2.3-4.6,4.6-6.9,7c-0.1,0.1-0.3,0.3-0.5,0.5
			c0-2.7,0-5.2,0-7.8C-456,288-457.1,288-458.3,288z M-454.8,268.7c0,0.2,0,0.4,0,0.6c0,2.4,0,4.8,0,7.2c0,2.2,0,4.3,0,6.5
			c0,0.3,0,0.5,0.4,0.5c1.4,0,2.8,0,4.2-0.1c1.2,0,2.1-0.8,2.2-1.8c0.1-1.5,0.1-2.9,0.1-4.4c0-0.8-0.6-1.2-1.4-1.4
			c1.2-0.5,1.4-1.5,1.4-2.5c0-0.7,0-1.5,0-2.2c0-1.2-0.7-2.1-1.9-2.2C-451.5,268.6-453.1,268.7-454.8,268.7z M-426.4,277.3
			L-426.4,277.3c0,1.3,0,2.6,0,3.9c0,1.4,0.7,2.2,2,2.4c0.8,0.1,1.6,0.1,2.4,0.1c1.4-0.1,2.2-0.9,2.2-2.2c0.1-2.8,0.1-5.5,0-8.3
			c0-1.1-0.7-1.8-1.8-2c-0.8-0.1-1.6-0.2-2.4-0.1c-1.8,0.2-2.4,1-2.4,2.8C-426.4,274.9-426.4,276.1-426.4,277.3z M-437.3,283.5
			c0.6,0,1.3,0,1.9,0c0.5,0,0.6-0.1,0.6-0.6c0-2,0-4,0-6c0-1.2,0-2.5,0-3.7c0-1.2-0.7-2-1.9-2.1c-0.8-0.1-1.7-0.1-2.5,0
			c-1.1,0.1-1.7,0.8-1.9,1.8c-0.1,0.7,0,1.4,0,2c0,0.1,0.1,0.3,0.2,0.3c0.7,0,1.4,0,2.2,0c0-0.6,0-1,0-1.5c0-0.5,0.3-0.5,0.7-0.5
			c0.4,0,0.6,0.1,0.6,0.5c0,0.5,0,1.1,0,1.6c0,0.3-0.1,0.5-0.4,0.6c-0.8,0.3-1.5,0.6-2.3,1c-0.7,0.3-1.1,0.8-1.2,1.5
			c-0.1,1.2-0.1,2.5,0,3.7c0,0.7,0.5,1.3,1.1,1.4c0.9,0.2,1.7,0.1,2.4-0.5c0.1-0.1,0.2-0.2,0.4-0.4
			C-437.3,282.9-437.3,283.2-437.3,283.5z M-434.1,271.1c0,0.3,0,0.5,0.1,0.7c0.2,1.5,0.5,3.1,0.7,4.6c0.3,2.2,0.7,4.3,1,6.5
			c0.1,0.4,0.2,0.6,0.6,0.5c0.8,0,1.6,0,2.5,0c0.3,0,0.5-0.1,0.5-0.4c0.5-3.1,1-6.3,1.4-9.4c0.1-0.8,0.2-1.6,0.4-2.5
			c-0.8,0-1.5,0-2.2,0c-0.1,0-0.2,0.2-0.2,0.3c-0.2,1.8-0.4,3.6-0.6,5.4c-0.1,0.8-0.2,1.7-0.3,2.5c0,0-0.1,0-0.1,0
			c-0.3-2.7-0.7-5.4-1-8.2C-432.4,271.1-433.2,271.1-434.1,271.1z M-444.1,272.3c0-0.2-0.1-0.4,0-0.6c0-0.4-0.1-0.6-0.6-0.6
			c-0.5,0-1,0-1.5,0c-0.3,0-0.5,0.1-0.5,0.4c0,3.8,0,7.7,0,11.5c0,0.4,0.1,0.5,0.5,0.4c0.5,0,1,0,1.6,0c0.5,0,0.6-0.2,0.6-0.6
			c0-2.6,0-5.1,0-7.7c0-0.7,0.1-0.9,0.8-1.1c0.4-0.1,0.8-0.2,1.1-0.2c0-0.9,0-1.9,0-2.8C-442.9,271-443,271-444.1,272.3z"/>
		<path id="XMLID_5559_" class="st0" d="M-452.2,279c0-0.5,0-1.1,0-1.6c0-0.3,0.1-0.4,0.4-0.4c0.1,0,0.2,0,0.4,0
			c0.8,0,0.9,0.1,0.9,0.9c0,0.8,0,1.6,0,2.4c0,0.2-0.1,0.7-0.3,0.7c-0.4,0.1-0.8,0.1-1.2,0.1c0,0-0.1-0.2-0.1-0.4
			C-452.2,280.2-452.2,279.6-452.2,279z"/>
		<path id="XMLID_5558_" class="st0" d="M-452.2,272.9c0-0.5,0-1,0-1.5c0-0.3,0.1-0.4,0.4-0.4c0.2,0,0.4,0,0.6,0
			c0.4,0,0.5,0.2,0.5,0.6c0,0.9,0,1.7,0,2.6c0,0.4-0.2,0.6-0.6,0.6c-0.2,0-0.4,0-0.6,0c-0.3,0-0.4-0.1-0.4-0.4
			C-452.2,273.9-452.2,273.4-452.2,272.9z"/>
		<path id="XMLID_5557_" class="st0" d="M-423.7,277.2c0-1.1,0-2.2,0-3.3c0-0.5,0.2-0.7,0.7-0.7c0.5,0,0.7,0.2,0.7,0.7
			c0,2.2,0,4.4,0,6.7c0,0.5-0.3,0.7-0.7,0.7c-0.5,0-0.7-0.2-0.7-0.7C-423.7,279.5-423.7,278.4-423.7,277.2z"/>
		<path id="XMLID_5556_" class="st0" d="M-437.4,277.9c0,1.1,0,2.1,0,3c0,0.2-0.4,0.3-0.7,0.4c-0.3,0.1-0.6-0.1-0.7-0.4
			c0-0.7-0.1-1.3,0-2C-438.7,278.3-438,278.2-437.4,277.9z"/>
	</g>
</g>
</svg>
